<?xml version="1.0" encoding="UTF-8" standalone="no"?>
<!-- Created with Inkscape (http://www.inkscape.org/) -->

<svg
   xmlns:dc="http://purl.org/dc/elements/1.1/"
   xmlns:cc="http://creativecommons.org/ns#"
   xmlns:rdf="http://www.w3.org/1999/02/22-rdf-syntax-ns#"
   xmlns:svg="http://www.w3.org/2000/svg"
   xmlns="http://www.w3.org/2000/svg"
   xmlns:xlink="http://www.w3.org/1999/xlink"
   xmlns:sodipodi="http://sodipodi.sourceforge.net/DTD/sodipodi-0.dtd"
   xmlns:inkscape="http://www.inkscape.org/namespaces/inkscape"
   width="1280"
   height="1280"
   viewBox="0 0 338.66666 338.66668"
   version="1.1"
   id="svg8"
   inkscape:version="0.92.3 (2405546, 2018-03-11)"
   sodipodi:docname="logo_square.svg"
   inkscape:export-filename="/home/flo/sync/git/yessssms/logo.png"
   inkscape:export-xdpi="96"
   inkscape:export-ydpi="96">
  <defs
     id="defs2">
    <linearGradient
       id="linearGradient2795">
      <stop
         id="stop2797"
         offset="0"
         style="stop-color:#b8b8b8;stop-opacity:0.49803922" />
      <stop
         id="stop2799"
         offset="1"
         style="stop-color:#7f7f7f;stop-opacity:0" />
    </linearGradient>
    <linearGradient
       id="linearGradient2787">
      <stop
         id="stop2789"
         offset="0"
         style="stop-color:#7f7f7f;stop-opacity:0.5" />
      <stop
         id="stop2791"
         offset="1"
         style="stop-color:#7f7f7f;stop-opacity:0" />
    </linearGradient>
    <linearGradient
       id="linearGradient3676">
      <stop
         id="stop3678"
         offset="0"
         style="stop-color:#b2b2b2;stop-opacity:0.5" />
      <stop
         id="stop3680"
         offset="1"
         style="stop-color:#b3b3b3;stop-opacity:0" />
    </linearGradient>
    <linearGradient
       id="linearGradient3236">
      <stop
         id="stop3244"
         offset="0"
         style="stop-color:#f4f4f4;stop-opacity:1" />
      <stop
         id="stop3240"
         offset="1"
         style="stop-color:#ffffff;stop-opacity:1" />
    </linearGradient>
    <linearGradient
       id="linearGradient4671">
      <stop
         id="stop4673"
         offset="0"
         style="stop-color:#ffd43b;stop-opacity:1" />
      <stop
         id="stop4675"
         offset="1"
         style="stop-color:#ffe873;stop-opacity:1" />
    </linearGradient>
    <linearGradient
       id="linearGradient4689">
      <stop
         id="stop4691"
         offset="0"
         style="stop-color:#5a9fd4;stop-opacity:1" />
      <stop
         id="stop4693"
         offset="1"
         style="stop-color:#306998;stop-opacity:1" />
    </linearGradient>
    <linearGradient
       gradientTransform="translate(100.2702,99.61116)"
       gradientUnits="userSpaceOnUse"
       xlink:href="#linearGradient4671"
       id="linearGradient2987"
       y2="144.75717"
       x2="-65.308502"
       y1="144.75717"
       x1="224.23996" />
    <linearGradient
       gradientTransform="translate(100.2702,99.61116)"
       gradientUnits="userSpaceOnUse"
       xlink:href="#linearGradient4689"
       id="linearGradient2990"
       y2="76.313133"
       x2="26.670298"
       y1="77.475983"
       x1="172.94208" />
    <linearGradient
       gradientTransform="matrix(0.562541,0,0,0.567972,-11.5974,-7.60954)"
       gradientUnits="userSpaceOnUse"
       xlink:href="#linearGradient4671"
       id="linearGradient2255"
       y2="144.75717"
       x2="-65.308502"
       y1="144.75717"
       x1="224.23996" />
    <linearGradient
       gradientTransform="matrix(0.562541,0,0,0.567972,-11.5974,-7.60954)"
       gradientUnits="userSpaceOnUse"
       xlink:href="#linearGradient4689"
       id="linearGradient2258"
       y2="76.313133"
       x2="26.670298"
       y1="76.176224"
       x1="172.94208" />
    <radialGradient
       gradientTransform="matrix(1,0,0,0.177966,0,108.7434)"
       gradientUnits="userSpaceOnUse"
       xlink:href="#linearGradient2795"
       id="radialGradient2801"
       fy="132.28575"
       fx="61.518883"
       r="29.036913"
       cy="132.28575"
       cx="61.518883" />
    <linearGradient
       gradientTransform="matrix(0.562541,0,0,0.567972,-9.399749,-5.305317)"
       gradientUnits="userSpaceOnUse"
       xlink:href="#linearGradient4671"
       id="linearGradient1475"
       y2="137.27299"
       x2="112.03144"
       y1="192.35176"
       x1="150.96111" />
    <linearGradient
       gradientTransform="matrix(0.562541,0,0,0.567972,-9.399749,-5.305317)"
       gradientUnits="userSpaceOnUse"
       xlink:href="#linearGradient4689"
       id="linearGradient1478"
       y2="114.39767"
       x2="135.66525"
       y1="20.603781"
       x1="26.648937" />
    <radialGradient
       gradientTransform="matrix(0,-0.06348597,0.27904758,1.0031798e-7,78.014029,473.00394)"
       gradientUnits="userSpaceOnUse"
       xlink:href="#linearGradient2795"
       id="radialGradient1480"
       fy="132.28575"
       fx="61.518883"
       r="29.036913"
       cy="132.28575"
       cx="61.518883" />
  </defs>
  <sodipodi:namedview
     id="base"
     pagecolor="#ffffff"
     bordercolor="#666666"
     borderopacity="1.0"
     inkscape:pageopacity="0.0"
     inkscape:pageshadow="2"
     inkscape:zoom="0.48057181"
     inkscape:cx="847.13942"
     inkscape:cy="709.05991"
     inkscape:document-units="mm"
     inkscape:current-layer="layer1"
     showgrid="false"
     units="px"
     showguides="false"
     borderlayer="true"
     inkscape:window-width="1879"
     inkscape:window-height="1145"
     inkscape:window-x="41"
     inkscape:window-y="27"
     inkscape:window-maximized="1" />
  <metadata
     id="metadata5">
    <rdf:RDF>
      <cc:Work
         rdf:about="">
        <dc:format>image/svg+xml</dc:format>
        <dc:type
           rdf:resource="http://purl.org/dc/dcmitype/StillImage" />
        <dc:title></dc:title>
      </cc:Work>
    </rdf:RDF>
  </metadata>
  <g
     inkscape:label="Ebene 1"
     inkscape:groupmode="layer"
     id="layer1"
     transform="translate(0,41.666703)">
    <rect
       y="-46.623116"
       x="-2.6672041"
       height="386.06766"
       width="344.19693"
       id="rect2350"
       style="opacity:1;fill:#fddd30;fill-opacity:1;fill-rule:nonzero;stroke:none;stroke-width:15.73863316;stroke-linecap:butt;stroke-miterlimit:4;stroke-dasharray:none;stroke-opacity:0.71383649" />
    <path
       sodipodi:nodetypes="ccccccccccccccccccccccccccscccsccccssccccscccccsssssscccccssccscscscccsccsccscccscsssccccccsccccscsssscscscscccccccscscccccssscccscccccscccssscsccccccsccscsccscsccccccccccccsssscssscccccccscssscssssssssscsssscscccsccccsccsccscccsccscccsccccccccccsscsccsccsccccscccscccccccccccccccccccscccccccccccccccccccsscccc"
       inkscape:connector-curvature="0"
       id="path1489"
       d="m 3.9887856,166.45968 v -9.91201 H 144.85934 285.7299 v 9.91201 9.91199 H 144.85934 3.9887856 Z m 0,-70.285104 V 46.614566 H 144.85934 285.7299 v 49.56001 49.560004 H 144.85934 3.9887856 Z M 49.299294,124.05531 c 1.28739,-0.69002 2.819307,-1.8389 3.404257,-2.5531 1.005514,-1.22768 3.02636,-6.85056 5.108545,-14.21418 0.513842,-1.81721 1.422424,-4.92598 2.01907,-6.90836 0.596647,-1.982424 1.687417,-5.766994 2.423933,-8.410194 0.736519,-2.64319 1.579429,-5.42678 1.873134,-6.18573 1.078367,-2.78654 0.787021,-3.06031 -2.92017,-2.74411 -5.873209,0.50094 -6.066961,0.59319 -6.464735,3.0776 -0.19794,1.23633 -0.874068,4.54565 -1.502495,7.35406 -0.628426,2.8084 -1.318572,6.02027 -1.53366,7.137484 l -0.391068,2.03132 -0.754982,-1.73094 c -0.415241,-0.952034 -1.761699,-4.163904 -2.99213,-7.137504 -1.230429,-2.97361 -2.628021,-6.31417 -3.105759,-7.42349 l -0.868614,-2.01697 -4.443943,0.22432 c -2.444168,0.12351 -4.61355,0.39402 -4.820848,0.60131 -0.207294,0.20729 0.685674,2.50076 1.984382,5.09656 2.310885,4.6189 6.222206,12.766084 9.370881,19.519284 1.548206,3.32056 1.558155,3.42214 0.516077,5.26898 -0.584409,1.03574 -2.069316,2.35055 -3.299792,2.92182 -2.162662,1.00402 -2.237746,1.14377 -2.252727,4.19248 l -0.01544,3.15381 h 3.162715 c 2.059626,0 3.979105,-0.43756 5.503427,-1.25454 z m 48.32385,-2.18714 c 0.550974,-0.98454 0.641245,-0.98454 1.72915,0 1.426426,1.29089 2.785736,1.323 4.013956,0.0947 0.5192,-0.51919 0.944,-0.65437 0.944,-0.30036 0,0.35399 0.54065,0.64363 1.20145,0.64363 0.97261,0 1.20146,-0.40049 1.20146,-2.10254 0,-1.46845 0.27175,-2.10255 0.90109,-2.10255 0.4956,0 0.90109,-0.4055 0.90109,-0.9011 0,-0.62933 -0.63411,-0.90108 -2.10255,-0.90108 -1.59498,0 -2.10695,0.25377 -2.12081,1.05127 -0.0175,1.00121 -0.0474,1.00121 -0.63058,0 -0.7771,-1.33421 -4.054187,-1.4174 -4.553733,-0.11556 -0.290692,0.75754 -0.489685,0.67367 -1.045188,-0.44056 -0.837636,-1.68013 -3.24707,-2.60763 -5.382055,-2.07178 -1.715797,0.43064 -1.932742,1.50252 -1.200601,5.93195 0.363308,2.198 0.435396,2.25271 2.967173,2.25271 1.834752,0 2.765105,-0.30426 3.176148,-1.03876 z m -3.525261,-2.86596 c 0,-1.49515 0.241203,-2.12228 0.750909,-1.95236 0.413,0.13759 0.750908,1.01622 0.750908,1.95236 0,0.93613 -0.337908,1.81469 -0.750908,1.95237 -0.509706,0.16983 -0.750909,-0.45723 -0.750909,-1.95237 z m 19.223277,2.09745 c 0,-0.35869 0.50502,-0.29743 1.23804,0.15008 1.05669,0.64527 1.36467,0.58519 2.10254,-0.41009 0.47548,-0.64136 0.86451,-0.86426 0.86451,-0.49535 0,1.0423 7.15322,0.6158 7.83839,-0.46735 0.37867,-0.59863 0.5563,-0.63775 0.56259,-0.12397 0.006,0.47405 0.89517,0.75091 2.41211,0.75091 1.49655,0 2.4208,-0.28324 2.45034,-0.75091 0.038,-0.60072 0.10803,-0.60072 0.35042,0 0.16665,0.413 0.82113,0.75091 1.45439,0.75091 0.83376,0 1.17622,-0.45573 1.2414,-1.65199 l 0.09,-1.65201 0.25026,1.65201 c 0.17364,1.14631 0.60582,1.65199 1.41181,1.65199 0.89152,0 1.18248,-0.45387 1.25156,-1.95235 0.0838,-1.81717 0.10735,-1.83796 0.34027,-0.30038 0.17364,1.14631 0.60581,1.65201 1.41181,1.65201 0.92769,0 1.17747,-0.45355 1.24063,-2.25273 l 0.0791,-2.25274 0.37147,2.10255 c 0.34719,1.9652 0.50882,2.09416 2.47401,1.9741 1.1564,-0.0706 3.00094,-0.14577 4.09898,-0.16688 1.88121,-0.0361 1.97453,-0.13805 1.61684,-1.76672 -0.21658,-0.98602 -0.10649,-1.89715 0.25628,-2.12136 0.40288,-0.249 0.6359,0.40793 0.6359,1.79271 0,2.15467 0.0277,2.17956 1.95236,1.75085 1.0738,-0.23919 2.96609,-0.39779 4.20509,-0.35242 2.51749,0.0922 2.71485,-0.2048 1.22813,-1.84755 -0.83648,-0.92428 -0.89163,-1.34514 -0.30037,-2.29187 0.39833,-0.63785 0.72424,-1.29855 0.72424,-1.46822 0,-0.60626 -2.17606,-0.29507 -2.88349,0.41236 -0.56067,0.56067 -0.72087,0.36043 -0.72087,-0.9011 0,-1.22147 -0.29666,-1.62196 -1.20145,-1.62196 -0.80097,0 -1.20146,0.40049 -1.20146,1.20144 0,1.07825 -0.40049,1.20146 -3.90473,1.20146 h -3.90472 v 2.13801 c 0,1.27235 -0.24323,1.98768 -0.60073,1.76672 -0.3304,-0.20412 -0.60073,-1.06265 -0.60073,-1.90769 0,-1.24067 -0.23127,-1.47596 -1.20145,-1.22224 -0.95565,0.24991 -1.20146,0.0182 -1.20146,-1.13139 0,-1.89098 -1.97336,-1.95556 -2.87118,-0.094 l -0.65187,1.35165 -0.0407,-1.35165 c -0.0402,-1.3356 -1.44855,-1.87488 -2.10835,-0.80729 -0.18502,0.29939 -0.8768,0.40301 -1.53727,0.23029 -1.01922,-0.26653 -1.20803,-0.009 -1.24828,1.70839 -0.0261,1.11235 -0.18377,1.68453 -0.35042,1.27153 -0.16666,-0.41299 -0.92477,-0.75091 -1.6847,-0.75091 -0.87743,0 -1.49659,-0.4394 -1.69653,-1.20394 -0.43889,-1.67835 -2.2282,-0.88416 -2.2282,0.98897 0,1.25609 -0.16141,1.3723 -1.16212,0.83674 -0.75128,-0.40208 -1.68568,-0.42288 -2.64308,-0.0588 -1.22776,0.46681 -1.53299,0.36412 -1.78527,-0.60063 -0.47559,-1.81864 -3.29659,-1.56594 -3.77448,0.33812 -0.45408,1.80915 -1.22746,1.94202 -1.7485,0.30036 -0.24366,-0.76769 -0.90892,-1.20146 -1.84267,-1.20146 -1.39808,0 -1.46133,0.16892 -1.46133,3.90472 0,3.50426 0.12321,3.90475 1.20145,3.90475 0.6608,0 1.20145,-0.27261 1.20145,-0.60583 z m 8.65602,-2.62364 c -0.50894,-1.32629 0.16815,-2.00339 1.08577,-1.08575 0.5418,0.5418 0.54411,0.8776 0.01,1.41202 -0.53442,0.53442 -0.79495,0.45684 -1.09546,-0.32627 z m 6.1523,-0.65602 c -0.18611,-0.48502 -0.0799,-1.04163 0.23609,-1.23691 0.31597,-0.19526 0.5745,0.20162 0.5745,0.88185 0,1.45049 -0.33407,1.59682 -0.81059,0.35506 z m 38.80659,-1.01738 1.05127,-1.23751 v 1.26801 c 0,0.86752 0.37947,1.26801 1.20146,1.26801 0.6608,0 1.20145,-0.27984 1.20145,-0.62186 0,-0.41952 0.39501,-0.41048 1.21387,0.0277 0.66763,0.3573 1.52109,0.45977 1.89657,0.2277 0.37549,-0.23206 1.58637,-0.38795 2.69086,-0.34643 1.10448,0.0416 2.00822,-0.11897 2.00829,-0.35675 1.2e-4,-0.37415 2.76241,-0.58111 9.16096,-0.68637 1.48652,-0.0245 1.66211,-0.25379 1.75298,-2.28944 l 0.10099,-2.26227 0.23564,2.25273 c 0.18284,1.74787 0.49677,2.25274 1.40084,2.25274 0.93189,0 1.18102,-0.45106 1.24427,-2.25274 l 0.0791,-2.25273 0.37146,2.10254 c 0.3066,1.73536 0.65997,2.13576 2.02347,2.29263 0.9086,0.10444 1.652,-0.0924 1.652,-0.43766 0,-0.42424 0.47892,-0.40955 1.47721,0.0452 1.18294,0.53899 1.78128,0.47383 3.00364,-0.32708 0.91088,-0.59684 1.52642,-0.73257 1.52642,-0.33657 0,0.5804 0.74435,0.57842 4.65564,-0.0136 0.0826,-0.0114 0.15019,-0.56328 0.15019,-1.2241 0,-0.90555 -0.40686,-1.20613 -1.652,-1.22055 -1.55645,-0.0182 -1.58684,-0.0683 -0.52538,-0.87222 1.63512,-1.23818 0.86945,-2.63874 -1.22945,-2.2489 -0.93464,0.17369 -1.89796,0.61328 -2.1407,0.97703 -0.30151,0.45182 -0.44426,0.4147 -0.45055,-0.11716 -0.006,-0.52811 -0.83054,-0.75021 -2.56228,-0.69036 -1.40421,0.0486 -3.43166,-0.10807 -4.50546,-0.34776 -1.46754,-0.32775 -1.95227,-0.23091 -1.95199,0.38997 2.8e-4,0.61852 -0.75421,0.77373 -3.00364,0.61786 -1.6522,-0.11443 -3.0038,0.0204 -3.00356,0.30036 2.6e-4,0.27968 -1.53649,0.44928 -3.41497,0.37688 -1.8785,-0.0724 -3.77099,0.16347 -4.20555,0.52411 -0.61884,0.51358 -0.79011,0.31423 -0.79011,-0.91965 0,-1.17488 -0.30543,-1.57536 -1.20145,-1.57536 -0.80097,0 -1.20146,0.40048 -1.20146,1.20144 0,0.92698 -0.40049,1.20146 -1.75305,1.20146 -0.96418,0 -2.18065,0.16415 -2.70327,0.36464 -0.68119,0.26139 -0.95022,0.007 -0.95022,-0.90108 0,-0.86526 -0.38015,-1.26574 -1.20146,-1.26574 -0.69175,0 -1.20145,0.40048 -1.20145,0.94401 0,0.84548 -0.10174,0.84223 -0.97494,-0.0309 -0.66042,-0.66043 -1.77472,-0.91652 -3.45418,-0.79382 l -2.47925,0.18118 0.21461,3.90473 c 0.11804,2.14761 0.35173,4.13174 0.51934,4.40924 0.52512,0.86936 4.62265,-0.20638 5.72386,-1.50264 z m -3.75455,-2.60622 c 0,-2.22928 1.4423,-3.02172 1.9134,-1.05127 0.39234,1.64096 -0.11438,3.15381 -1.05635,3.15381 -0.57899,0 -0.85705,-0.68214 -0.85705,-2.10254 z m 19.824,-0.63618 c 0,-0.5151 0.27033,-0.76949 0.60073,-0.56528 0.3304,0.20411 0.60073,0.62565 0.60073,0.93654 0,0.3109 -0.27033,0.56528 -0.60073,0.56528 -0.3304,0 -0.60073,-0.42144 -0.60073,-0.93654 z m 12.01455,-0.86564 c 0,-0.6608 0.27033,-1.20146 0.60073,-1.20146 0.3304,0 0.60073,0.54066 0.60073,1.20146 0,0.6608 -0.27033,1.20144 -0.60073,1.20144 -0.3304,0 -0.60073,-0.54064 -0.60073,-1.20144 z m -34.84218,2.33862 c 0,-0.90736 -0.26903,-1.16247 -0.95023,-0.90108 -0.52262,0.20049 -1.3336,0.36464 -1.80218,0.36464 -0.46857,0 -0.85196,0.40548 -0.85196,0.90108 0,0.60074 0.60073,0.9011 1.80219,0.9011 1.4322,0 1.80218,-0.25985 1.80218,-1.26574 z m -73.2121,-5.12596 c 2.80652,-1.88487 5.329911,-5.14494 5.329911,-6.88591 0,-1.08967 -0.409955,-1.22167 -6.083692,-1.95875 -1.861707,-0.24185 -2.275388,-0.0715 -2.841206,1.17038 -0.746157,1.63764 -4.01904,3.84796 -5.702812,3.85136 -1.296647,0.002 -5.196292,-3.69223 -5.196292,-4.92339 0,-0.65528 2.138397,-1.00329 9.694863,-1.577884 5.33217,-0.40544 9.936029,-0.88623 10.230794,-1.06839 1.271686,-0.78594 -1.207342,-9.07641 -3.573817,-11.95173 -3.211986,-3.90261 -7.208049,-5.33142 -13.238035,-4.73331 -3.184432,0.31587 -4.258388,0.74303 -6.679265,2.65663 -4.710777,3.72365 -5.720281,5.89533 -5.708611,12.28049 0.0089,4.855764 0.185429,5.712294 1.709173,8.292014 1.831659,3.10103 4.671682,5.58955 7.375657,6.46277 0.930083,0.30036 4.030274,0.45228 6.889314,0.3376 4.549934,-0.18255 5.521988,-0.42597 7.794018,-1.95188 z M 72.471699,92.549076 c 0,-1.63903 1.845868,-3.79774 3.571433,-4.17673 2.639414,-0.57971 4.784731,0.24832 5.817462,2.24543 1.252023,2.42113 0.523869,2.83258 -5.033622,2.84432 -3.519222,0.007 -4.355273,-0.16779 -4.355273,-0.91302 z m 39.754961,16.814454 c 3.29873,-1.12399 6.44698,-4.05793 6.92637,-6.45486 0.31428,-1.57144 0.41704,-1.64132 0.94674,-0.64406 2.10274,3.9588 6.66129,6.34284 12.1443,6.35117 6.25017,0.009 10.90905,-2.51384 12.95871,-7.01871 1.0746,-2.361834 1.09208,-2.371324 1.6592,-0.90111 1.44097,3.73562 5.96601,5.99133 12.01879,5.99133 4.82065,0 8.48838,-1.36525 11.16046,-4.15429 1.36768,-1.42756 1.80513,-2.51799 2.00321,-4.993514 0.13938,-1.7419 -0.0143,-3.85899 -0.34164,-4.70465 -0.77659,-2.00661 -4.6147,-3.88052 -10.38915,-5.0724 -2.51414,-0.51892 -5.05859,-1.29991 -5.65434,-1.73554 -1.40029,-1.02392 -0.80627,-2.60037 1.27853,-3.39301 1.90514,-0.72433 3.16227,-0.39674 4.98145,1.29807 1.43195,1.33408 1.04949,1.35683 8.02042,-0.47737 1.40303,-0.36917 1.32549,-1.4872 -0.2413,-3.47905 -3.85582,-4.90187 -15.07339,-5.40298 -20.76303,-0.92751 -2.03927,1.60408 -3.17495,3.87686 -3.17495,6.35385 0,4.97718 3.15663,7.5251 11.26834,9.09537 5.89967,1.14207 6.87599,1.90674 5.56417,4.35791 -0.49049,0.9165 -1.25521,1.224154 -3.0428,1.224154 -2.31968,0 -2.88449,-0.361464 -4.91757,-3.147014 -0.70304,-0.96324 -0.99164,-0.97491 -3.71125,-0.15007 -4.07452,1.23561 -5.16089,1.1583 -5.16089,-0.36725 0,-0.69383 -0.88139,-2.14291 -1.95863,-3.22016 -1.59082,-1.59082 -2.98674,-2.20001 -7.43328,-3.24392 -3.01105,-0.70691 -5.89602,-1.28532 -6.41106,-1.28532 -1.65326,0 -1.93917,-2.49231 -0.42643,-3.71725 1.85772,-1.50427 3.77822,-1.36135 5.55283,0.41325 1.38587,1.38587 1.72841,1.45864 4.43719,0.94263 5.51117,-1.04986 6.01335,-1.64309 3.78693,-4.47352 -5.60869,-7.13031 -22.19119,-4.61204 -23.73254,3.60407 -1.04278,5.55844 1.93553,9.04553 8.88129,10.39848 7.46167,1.45342 9.68244,2.94234 7.55773,5.067074 -1.5046,1.50459 -3.36366,1.71277 -5.26503,0.58961 -0.99515,-0.58787 -1.80936,-1.2292 -1.80936,-1.42521 0,-0.195944 -0.33938,-0.820534 -0.75417,-1.387784 -0.69595,-0.95176 -0.98583,-0.96113 -3.75455,-0.12124 -4.10824,1.2461 -4.3709,1.19519 -5.31231,-1.0293 -0.45444,-1.07379 -1.33663,-2.37963 -1.96043,-2.90183 -1.61551,-1.35241 -6.03623,-2.87854 -9.54436,-3.29492 -5.06823,-0.60154 -7.02496,-2.30709 -4.98604,-4.34602 1.25409,-1.25409 5.26109,-0.88523 6.45939,0.59462 1.00614,1.24251 1.24467,1.275 4.30138,0.58587 1.7799,-0.40126 3.58456,-0.94808 4.01036,-1.21513 1.37083,-0.85974 -0.24972,-3.57419 -3.28174,-5.49705 -2.54545,-1.61428 -3.32624,-1.79662 -7.67224,-1.79169 -5.73796,0.007 -9.665619,1.57241 -12.049853,4.80405 -1.763266,2.38996 -2.044407,6.75984 -0.570293,8.86442 1.447571,2.06672 5.658826,4.17073 9.234226,4.61359 4.86295,0.60235 7.38833,1.81548 7.15132,3.435334 -0.11902,0.81337 -0.9005,1.61044 -2.02827,2.06875 -1.53482,0.62375 -2.16265,0.58676 -3.84141,-0.22636 -1.10371,-0.53454 -2.14295,-1.49277 -2.30942,-2.12936 -0.26046,-0.99601 -0.68831,-1.111554 -3.066962,-0.82826 -3.76635,0.44853 -6.068271,1.40403 -6.068271,2.51885 0,1.64656 4.70972,6.16254 7.086042,6.79455 3.438121,0.91438 9.232661,0.81398 12.244191,-0.21206 z m 70.655,-8.8337 -0.1765,-4.355254 -3.90473,0.20775 c -2.1476,0.1142 -4.10884,0.39942 -4.3583,0.6338 -0.24947,0.23436 -0.27854,2.10079 -0.0646,4.147604 l 0.38897,3.72147 h 4.14584 4.14583 z m -3.33032,-7.050344 1.652,-0.009 v -15.01817 -15.0182 h -5.09697 -5.09697 l 0.34432,3.75455 c 0.18938,2.06499 0.86063,6.59298 1.49167,10.06218 0.63105,3.46921 1.14778,6.96132 1.14829,7.76025 5.1e-4,0.79893 0.30305,3.18751 0.67231,5.30796 0.61098,3.50846 0.78663,3.82442 1.95237,3.5116 0.70454,-0.18913 2.02438,-0.34745 2.93298,-0.35197 z"
       style="fill:#fddd30;stroke-width:0.60072738" />
    <path
       sodipodi:nodetypes="cccccccccsccscssccsccccssccccccccccssccccccccccccccccccccccccccccscccccccccccccccccccccsscscssccsccccsccscssscccccccccccccccscccccccsccccccccscccccssssccscccccsccccccccsccccccccccscsscccccssccccccscscccccscccscccccccccccccscccccsccccsccccccsccccscccccscsccscccccccccccccccccccccccccccccscssscccccccccccccccccccccccccccscccccccccccscccccccccsccccccccccccccccccccccccscsscccccccscccccccsscsccsscccccccscccccccccsccccccccccccscccsccscccccc"
       inkscape:connector-curvature="0"
       id="path1487"
       d="m 3.9887856,151.14112 v -5.40654 H 144.85934 285.7299 v 5.40654 5.40655 H 144.85934 3.9887856 Z M 95.900065,122.67085 c 0,-0.12987 0.41953,-0.39709 0.932292,-0.59384 0.534599,-0.20525 0.775731,-0.10445 0.565273,0.23608 -0.352783,0.57082 -1.497565,0.84429 -1.497565,0.35776 z m 4.655635,-0.16166 c 0.413,-0.16665 1.08882,-0.16665 1.50182,0 0.413,0.16665 0.0751,0.30299 -0.75091,0.30299 -0.826,0 -1.16391,-0.13645 -0.75091,-0.30299 z m 12.56522,-2.40556 c -0.22026,-0.22023 -0.40049,-0.67982 -0.40049,-1.02123 0,-0.37642 0.2798,-0.34096 0.71086,0.0901 0.39098,0.39097 0.57119,0.85051 0.40048,1.02123 -0.17071,0.17074 -0.49059,0.1301 -0.71085,-0.0901 z m 6.608,0 c -0.22026,-0.22023 -0.36913,-1.77464 -0.33081,-3.45417 0.0383,-1.67953 0.19395,-2.57732 0.34583,-1.99508 0.16111,0.61761 0.57003,0.88239 0.98159,0.63559 0.39889,-0.23919 0.34916,0.0159 -0.11445,0.58787 -0.4604,0.56766 -0.70358,1.80352 -0.55459,2.8186 0.2866,1.95272 0.27363,2.00841 -0.32757,1.40719 z m 11.66148,-0.55066 c 0.0288,-0.69982 0.17117,-0.84216 0.36294,-0.36293 0.17353,0.43364 0.15219,0.95176 -0.0474,1.15138 -0.19962,0.19957 -0.3416,-0.1553 -0.31551,-0.78845 z m 3.40676,0.55329 c 0.413,-0.16665 1.08882,-0.16665 1.50182,0 0.413,0.16666 0.0751,0.30302 -0.75091,0.30302 -0.826,0 -1.16391,-0.13645 -0.75091,-0.30302 z m -43.655487,-1.15401 c 0.02884,-0.69982 0.171171,-0.84216 0.362936,-0.36295 0.173532,0.43366 0.15219,0.95178 -0.04741,1.1514 -0.199619,0.19957 -0.341596,-0.1553 -0.315513,-0.78845 z m 25.831277,0 c 0.0288,-0.69982 0.17117,-0.84216 0.36293,-0.36295 0.17354,0.43366 0.15219,0.95178 -0.0474,1.1514 -0.19962,0.19957 -0.3416,-0.1553 -0.31552,-0.78845 z m 31.23782,-0.60074 c 0.0288,-0.6998 0.17117,-0.84216 0.36293,-0.36293 0.17354,0.43363 0.15219,0.95178 -0.0474,1.1514 -0.19962,0.19957 -0.3416,-0.1553 -0.31552,-0.78847 z m 1.64212,0.54078 c 0.43364,-0.17346 0.95177,-0.15212 1.15139,0.0475 0.19962,0.19958 -0.15518,0.3416 -0.78845,0.31553 -0.69982,-0.0288 -0.84216,-0.17119 -0.36294,-0.36296 z m -56.308308,-1.1415 c 0.02884,-0.69982 0.17117,-0.84216 0.362936,-0.36293 0.173532,0.43363 0.152189,0.95176 -0.04741,1.15137 -0.19962,0.19958 -0.341596,-0.1553 -0.315513,-0.78844 z m 67.588028,0.4372 c -0.17471,-0.28267 0.35,-0.38632 1.166,-0.23034 0.816,0.15599 1.48364,0.38728 1.48364,0.51395 0,0.46483 -2.34202,0.2141 -2.64964,-0.28361 z m -53.17057,-1.03792 c 0.0288,-0.69982 0.17117,-0.84216 0.36293,-0.36295 0.17354,0.43366 0.15219,0.95178 -0.0474,1.15139 -0.19962,0.19958 -0.3416,-0.15507 -0.31552,-0.78844 z m 6.91077,0.43103 c -0.25878,-0.4187 -0.30827,-0.92351 -0.10999,-1.12179 0.53764,-0.53763 1.12383,0.25309 0.83345,1.12422 -0.20348,0.61043 -0.34498,0.60998 -0.72346,-0.002 z m 24.28882,-0.43103 c 0.005,-0.63328 0.2836,-1.5569 0.61898,-2.0525 0.44532,-0.65807 0.50105,-0.41504 0.20665,0.9011 -0.49408,2.20883 -0.83791,2.68833 -0.82563,1.1514 z m 11.90936,-1.37862 c -0.12219,-1.28136 -0.0423,-2.97091 0.1774,-3.75454 0.25124,-0.8959 0.42178,-0.0311 0.45944,2.32975 0.0668,4.19135 -0.29566,5.00236 -0.63683,1.42479 z m 17.3669,1.93191 c 0.413,-0.16665 1.08882,-0.16665 1.50182,0 0.413,0.16665 0.0751,0.303 -0.75091,0.303 -0.826,0 -1.16391,-0.13646 -0.75091,-0.303 z m -34.59715,-1.40433 c 0,-0.82599 0.13634,-1.1639 0.303,-0.75091 0.16665,0.413 0.16665,1.08883 0,1.50183 -0.16666,0.41299 -0.303,0.0751 -0.303,-0.75092 z m 41.1229,0.49081 c 0.17349,-0.28072 0.56709,-0.35487 0.87467,-0.16484 0.78598,0.48577 0.69748,0.6752 -0.31545,0.6752 -0.48107,0 -0.73271,-0.22968 -0.55922,-0.5104 z m -77.93875,-0.94136 c -0.747226,-0.95278 -0.725979,-0.97403 0.226819,-0.22682 1.000663,0.78479 1.318886,1.27809 0.824463,1.27809 -0.124739,0 -0.597813,-0.47307 -1.051273,-1.05127 z m 39.12391,0.41509 c 0,-0.3499 0.27032,-0.4691 0.60072,-0.2649 0.3304,0.20412 0.60073,0.49047 0.60073,0.63619 0,0.14576 -0.27033,0.26489 -0.60073,0.26489 -0.3304,0 -0.60072,-0.28628 -0.60072,-0.63618 z m 44.31331,-0.87445 c -0.93845,-1.25504 -0.95369,-1.56151 -0.15389,-3.09498 0.48824,-0.93612 0.88938,-1.28302 0.89141,-0.77089 0.002,0.51212 -0.3143,1.24914 -0.70297,1.6378 -0.54176,0.54175 -0.44915,0.99126 0.3968,1.92601 0.60691,0.67063 0.9925,1.32636 0.85686,1.45718 -0.13564,0.13078 -0.71534,-0.38899 -1.28822,-1.15512 z m 9.26853,-0.59191 c 0.0123,-0.99119 0.14687,-1.32397 0.29918,-0.73947 0.15231,0.58449 0.14229,1.39546 -0.0223,1.80219 -0.16456,0.4067 -0.28917,-0.0715 -0.27693,-1.06272 z m 3.25406,1.00979 c -0.16724,-0.27062 0.49262,-0.3751 1.46637,-0.23218 0.97375,0.14282 1.77046,0.36432 1.77046,0.49204 0,0.45772 -2.93916,0.22182 -3.23683,-0.25986 z m 5.5271,0.0817 c 0.43365,-0.17347 0.95178,-0.15212 1.15139,0.0474 0.19962,0.19958 -0.15518,0.34162 -0.78845,0.31553 -0.69982,-0.0288 -0.84216,-0.1712 -0.36294,-0.36294 z m -2.55527,-1.11055 c -0.64135,-0.48511 -0.8772,-0.88201 -0.5241,-0.88201 0.35309,0 0.97851,0.4055 1.38982,0.9011 0.93546,1.12715 0.64118,1.12066 -0.86572,-0.0182 z m 5.13112,-0.10376 c 0.43742,-0.72839 0.92461,-1.19502 1.08265,-1.03697 0.15805,0.15802 -0.19984,0.75397 -0.7953,1.32429 -1.03442,0.99079 -1.04722,0.97798 -0.28735,-0.28732 z m 2.80476,-0.52212 c 0.15326,-0.80166 0.5334,-1.45757 0.84478,-1.45757 0.31139,0 0.39176,0.28217 0.17862,0.62703 -0.21315,0.34489 -0.10771,0.9642 0.23428,1.37629 0.45577,0.54918 0.33367,0.77096 -0.45725,0.83054 -0.83193,0.0627 -1.01525,-0.25255 -0.80043,-1.37629 z m -110.8458,0.53124 c 0.578201,-0.15121 1.524345,-0.15121 2.102546,0 0.578199,0.15122 0.105123,0.27473 -1.051273,0.27473 -1.1564,0 -1.629472,-0.12351 -1.051273,-0.27473 z m 63.25221,-0.14508 c -0.19011,-0.30758 -0.11593,-0.70117 0.16479,-0.87467 0.28073,-0.17347 0.51041,0.0781 0.51041,0.55923 0,1.01293 -0.18943,1.10143 -0.6752,0.31544 z m 17.69579,-0.5913 -1.50181,-0.43005 1.55187,-0.30873 c 1.04531,-0.20798 1.55189,-0.0479 1.55189,0.48992 0,0.43926 -0.0225,0.77171 -0.05,0.73876 -0.0276,-0.0329 -0.72591,-0.25338 -1.55191,-0.4899 z m -40.1441,-1.61448 c 0.53836,-0.53835 1.26687,-0.87985 1.61892,-0.7589 0.35205,0.12101 -0.0884,0.56141 -0.97883,0.97882 -1.49618,0.70139 -1.54471,0.6847 -0.64009,-0.22001 z m 33.5453,0.51226 c -0.0213,-1.74149 1.26528,-2.05913 2.69408,-0.66511 0.39295,0.38339 0.21615,0.43966 -0.51117,0.16257 -0.69063,-0.26306 -1.31306,-0.10581 -1.64281,0.41495 -0.37948,0.59931 -0.53352,0.62429 -0.5401,0.0874 z m -6.9766,-1.65199 c 0.0395,-0.80467 0.50846,-1.22784 1.41989,-1.28138 1.05791,-0.0622 1.09957,-0.0204 0.18713,0.18709 -0.64555,0.14689 -1.28449,0.7235 -1.41989,1.28138 -0.1718,0.70791 -0.22832,0.65137 -0.18711,-0.18709 z m 25.6848,0.30036 c 0,-0.82599 0.13634,-1.16391 0.303,-0.75091 0.16665,0.413 0.16665,1.08882 0,1.50182 -0.16665,0.413 -0.303,0.0752 -0.303,-0.75091 z M 56.299487,111.1429 c 0.02883,-0.6998 0.17117,-0.84216 0.36294,-0.36294 0.173532,0.43364 0.15219,0.95178 -0.04743,1.1514 -0.199619,0.19958 -0.341598,-0.1553 -0.31551,-0.78846 z m 81.501313,0.55331 c 0.41299,-0.16665 1.08881,-0.16665 1.50181,0 0.413,0.16665 0.0751,0.30299 -0.75091,0.30299 -0.826,0 -1.1639,-0.13645 -0.7509,-0.30299 z m 66.67071,-0.27743 c 0.4075,-0.41054 0.89223,-0.59513 1.07719,-0.41016 0.18495,0.18505 -0.14845,0.52085 -0.7409,0.74644 -0.85616,0.32602 -0.92516,0.25702 -0.33629,-0.33628 z m -8.85071,-0.72643 c 0,-0.44054 0.4012,-0.80098 0.89155,-0.80098 0.67485,0 0.72998,0.19481 0.22682,0.80098 -0.36561,0.44054 -0.76681,0.80097 -0.89155,0.80097 -0.12474,0 -0.22682,-0.36043 -0.22682,-0.80097 z m -128.601115,-2.6532 -1.45635,-1.65201 1.652,1.45634 c 1.544044,1.36119 1.927487,1.84766 1.456349,1.84766 -0.107597,0 -0.851002,-0.7434 -1.651999,-1.65199 z m 30.005205,0 c -0.747226,-0.9528 -0.725979,-0.97405 0.226819,-0.22682 1.000663,0.78476 1.318886,1.27809 0.824463,1.27809 -0.124739,0 -0.597813,-0.47307 -1.051273,-1.05127 z m 34.80618,0.64091 c 0.43364,-0.17347 0.95177,-0.15213 1.15139,0.0474 0.19962,0.19957 -0.15518,0.34161 -0.78845,0.31553 -0.69982,-0.0288 -0.84216,-0.1712 -0.36294,-0.36294 z m -17.30846,-0.41718 c 0,-0.12465 0.47307,-0.59781 1.05127,-1.05127 0.95279,-0.74723 0.97404,-0.72598 0.22682,0.22682 -0.78477,1.00066 -1.27808,1.31889 -1.27808,0.82447 z m 26.432,-1.80218 c 0,-0.12465 0.47308,-0.59782 1.05128,-1.05127 0.95279,-0.74724 0.97403,-0.72598 0.22682,0.22682 -0.78478,1.00066 -1.27809,1.31889 -1.27809,0.82447 z m -46.933355,-1.4252 c -0.747229,-0.95277 -0.725979,-0.97403 0.226819,-0.22681 1.00066,0.78476 1.318884,1.27806 0.824463,1.27806 -0.124739,0 -0.597816,-0.47307 -1.051273,-1.05127 z m -19.824002,-0.60072 c -0.747226,-0.9528 -0.725979,-0.97405 0.226819,-0.22681 0.578199,0.45345 1.051273,0.92653 1.051273,1.05127 0,0.49441 -0.49331,0.17618 -1.278083,-0.82446 z m 6.13396,0.89468 c 0.137658,-0.0861 0.926123,-0.69435 1.752123,-1.35163 l 1.501819,-1.19506 -1.14438,1.35166 c -0.629405,0.74339 -1.41786,1.35163 -1.752116,1.35163 -0.334265,0 -0.495109,-0.0704 -0.357446,-0.15667 z m 40.722767,-1.49542 c -0.74722,-0.95278 -0.72598,-0.97403 0.22682,-0.22682 1.00066,0.78477 1.31889,1.27807 0.82446,1.27807 -0.12473,0 -0.59781,-0.47307 -1.05127,-1.05127 z m 27.37193,-0.90108 -1.76439,-1.95237 1.95237,1.7644 c 1.81987,1.64466 2.22848,2.14032 1.76439,2.14032 -0.1034,0 -0.98195,-0.87855 -1.95237,-1.95235 z m 18.35998,1.71627 c 0,-0.12987 0.41953,-0.39708 0.93229,-0.59384 0.5346,-0.20525 0.77573,-0.10444 0.56527,0.23608 -0.35278,0.57082 -1.49756,0.8443 -1.49756,0.35776 z m 11.27439,-0.19935 c 1.07972,-0.13373 2.70168,-0.131 3.60437,0.007 0.90268,0.13714 0.0193,0.24646 -1.96312,0.2431 -1.98241,-0.002 -2.72096,-0.11556 -1.64125,-0.24923 z m -74.95149,-1.36682 c -0.54143,-0.3499 -0.61552,-0.58598 -0.18563,-0.59152 0.3935,-0.005 0.88253,0.26113 1.08673,0.59152 0.46094,0.74583 0.25298,0.74583 -0.90109,0 z m 67.62045,-1.97825 c 0.22559,-0.59246 0.56149,-0.92585 0.74645,-0.7409 0.18495,0.18504 3.8e-4,0.66967 -0.41017,1.07718 -0.59329,0.58886 -0.66229,0.51986 -0.33628,-0.33628 z M 98.190338,100.2698 c 0.433647,-0.17347 0.951774,-0.15212 1.151396,0.0474 0.199619,0.19957 -0.155186,0.34159 -0.788455,0.3155 -0.699817,-0.0288 -0.842159,-0.17119 -0.362941,-0.36293 z m 60.346982,-0.007 c 0.58449,-0.15235 1.39547,-0.14236 1.80218,0.0227 0.40671,0.16461 -0.0715,0.28919 -1.0627,0.27693 -0.9912,-0.0113 -1.32397,-0.1469 -0.73948,-0.29918 z M 77.134341,99.653486 c 0.747251,-0.14372 1.82856,-0.13827 2.402908,0.0114 0.574351,0.1503 -0.03705,0.26791 -1.35864,0.26126 -1.321601,-0.007 -1.79152,-0.12964 -1.044268,-0.27339 z m 42.194089,-0.21138 c 0,-0.3499 0.27033,-0.4691 0.60073,-0.26491 0.3304,0.20411 0.60072,0.49048 0.60072,0.63618 0,0.14576 -0.27032,0.264924 -0.60072,0.264924 -0.3304,0 -0.60073,-0.286284 -0.60073,-0.636194 z m 54.87126,-0.81932 c 0.0538,-0.99053 0.48804,-1.86141 0.99638,-1.9981 0.60235,-0.16188 0.67221,-0.0777 0.21074,0.25405 -0.37969,0.27295 -0.82806,1.1721 -0.99638,1.9981 -0.26356,1.293374 -0.29281,1.258114 -0.21075,-0.25405 z m -88.023899,0.4444 c 0.433647,-0.17346 0.951774,-0.15212 1.151396,0.0474 0.199619,0.19958 -0.155187,0.34162 -0.788453,0.31553 -0.699819,-0.0288 -0.842162,-0.17119 -0.362943,-0.36296 z m -34.081395,-1.1415 c 0.02881,-0.69982 0.17117,-0.84216 0.362941,-0.36295 0.173531,0.43365 0.152189,0.95178 -0.04743,1.15139 -0.19962,0.19958 -0.341599,-0.1553 -0.315516,-0.78844 z m 75.043494,0.35043 c -0.54143,-0.34991 -0.61553,-0.58601 -0.18564,-0.59153 0.3935,-0.005 0.88253,0.26113 1.08673,0.59153 0.46094,0.7458 0.25298,0.7458 -0.90109,0 z m -34.794761,-0.95117 c 0.02884,-0.6998 0.17117,-0.84216 0.362934,-0.36293 0.173531,0.43366 0.152189,0.95178 -0.04741,1.15139 -0.199619,0.19958 -0.341598,-0.1553 -0.315515,-0.78846 z m 90.061671,0.19435 c 0,-0.52643 -0.47307,-1.08079 -1.05128,-1.23188 -0.98524,-0.25748 -0.98406,-0.27911 0.0188,-0.34441 1.0861,-0.0706 2.09246,1.47342 1.407,2.15887 -0.20602,0.20593 -0.37459,-0.0561 -0.37459,-0.58258 z m -28.83491,-1.04525 c -0.54143,-0.3499 -0.61553,-0.58601 -0.18564,-0.59153 0.3935,-0.005 0.88253,0.26113 1.08673,0.59153 0.46094,0.7458 0.25298,0.7458 -0.90109,0 z m -59.228718,-2.5531 -1.14438,-1.35163 1.351635,1.14436 c 1.270203,1.07546 1.625113,1.55891 1.144381,1.55891 -0.114,0 -0.722231,-0.60824 -1.351636,-1.35164 z m 81.342988,-0.26019 c 0.43365,-0.17346 0.95178,-0.15212 1.1514,0.0474 0.19962,0.19958 -0.15519,0.34162 -0.78846,0.31553 -0.69981,-0.0288 -0.84216,-0.17119 -0.36294,-0.36296 z m -54.91099,-1.54199 -1.14438,-1.35163 1.35164,1.14436 c 1.2702,1.07545 1.62511,1.5589 1.14438,1.5589 -0.114,0 -0.72223,-0.60823 -1.35164,-1.35163 z m 49.95607,-0.27445 c -0.32601,-0.85617 -0.25701,-0.92517 0.33628,-0.33628 0.41055,0.40748 0.59513,0.89222 0.41017,1.07718 -0.18495,0.18504 -0.52086,-0.14849 -0.74645,-0.7409 z m 3.91353,-1.12724 c 0.0288,-0.69983 0.17117,-0.84216 0.36294,-0.36296 0.17353,0.43366 0.15218,0.95178 -0.0474,1.1514 -0.19962,0.19957 -0.3416,-0.1553 -0.31552,-0.78844 z m -85.011721,-2.47713 c -0.326003,-0.85617 -0.257004,-0.92516 0.336287,-0.3363 0.410548,0.40751 0.595123,0.89225 0.410164,1.0772 -0.184952,0.18505 -0.52086,-0.14849 -0.746451,-0.7409 z m 40.998561,0.61501 c 0.43365,-0.17347 0.95178,-0.15213 1.1514,0.0474 0.19962,0.19957 -0.15519,0.34159 -0.78846,0.3155 -0.69981,-0.0288 -0.84216,-0.17119 -0.36294,-0.36293 z m -19.22327,-0.60075 c 0.43365,-0.17346 0.95177,-0.15212 1.15139,0.0475 0.19962,0.19957 -0.15518,0.34161 -0.78845,0.31552 -0.69982,-0.0288 -0.84216,-0.17119 -0.36294,-0.36295 z m -56.861608,-1.39181 c 0,-0.826 0.136342,-1.16391 0.302998,-0.75092 0.166653,0.41302 0.166653,1.08883 0,1.50183 -0.166652,0.41299 -0.302998,0.0752 -0.302998,-0.75091 z m 119.566998,-0.30017 c 0.0123,-0.9912 0.14687,-1.32396 0.29918,-0.73947 0.15231,0.58448 0.14229,1.39547 -0.0223,1.80218 -0.16451,0.40671 -0.28914,-0.0715 -0.2769,-1.06271 z m -19.03577,-0.29348 c -0.21045,-0.34053 0.0307,-0.44125 0.56527,-0.23609 1.04071,0.39935 1.23113,0.82993 0.36702,0.82993 -0.3109,0 -0.73044,-0.26722 -0.93229,-0.59384 z m -49.67689,-0.41725 c 0.43364,-0.17346 0.95177,-0.15212 1.15139,0.0474 0.19962,0.19958 -0.15518,0.3416 -0.78845,0.31551 -0.69982,-0.0288 -0.84216,-0.17119 -0.36294,-0.36294 z m -69.121191,-1.18893 c 0.413,-0.16665 1.088818,-0.16665 1.501818,0 0.413,0.16665 0.07508,0.303 -0.750909,0.303 -0.826,0 -1.163909,-0.13646 -0.750909,-0.303 z m 79.689471,-1.55452 -1.14437,-1.35163 1.35163,1.14436 c 1.2702,1.07545 1.62511,1.5589 1.14438,1.5589 -0.114,0 -0.72223,-0.60823 -1.35164,-1.35163 z m -52.619196,-0.26031 c 0.433649,-0.17346 0.951774,-0.15212 1.151396,0.0475 0.199619,0.19957 -0.155187,0.34161 -0.788458,0.31552 -0.699812,-0.0288 -0.842159,-0.17119 -0.362938,-0.36295 z m 78.762446,-1.84234 -1.45635,-1.65202 1.652,1.45637 c 1.54404,1.36117 1.92749,1.84764 1.45635,1.84764 -0.1076,0 -0.851,-0.7434 -1.652,-1.65199 z m -94.719267,0.43179 c 0.743401,0.29882 0.946146,0.55184 0.450547,0.56226 -2.739732,-2.31104 -3.53724,-1.87765 -0.450547,-0.56226 z m 8.510304,-0.0286 c -39.214138,-101.69102 -19.607072,-50.84551 0,0 z m 112.640963,-2.20533 -1.45635,-1.65201 1.652,1.45636 c 0.9086,0.80098 1.652,1.5444 1.652,1.652 0,0.47114 -0.48647,0.0876 -1.84765,-1.45635 z m -36.74207,-1.77652 c 0.74725,-0.14373 1.82856,-0.13828 2.40291,0.0113 0.57434,0.1503 -0.0371,0.26793 -1.35865,0.26126 -1.3216,-0.007 -1.79151,-0.12964 -1.04426,-0.27339 z m 27.06327,-1.78761 c 0.43364,-0.17346 0.95178,-0.15212 1.15139,0.0474 0.19962,0.19958 -0.15518,0.34159 -0.78845,0.31553 -0.69982,-0.0288 -0.84216,-0.17119 -0.36294,-0.36296 z m 13.37606,-1.1415 c 0.0288,-0.69983 0.17117,-0.84216 0.36294,-0.36296 0.17353,0.43366 0.15219,0.95178 -0.0474,1.1514 -0.19962,0.19958 -0.3416,-0.15507 -0.31551,-0.78844 z m -0.50879,-3.85468 c 0,-1.1564 0.12363,-1.62947 0.27474,-1.05127 0.15109,0.57819 0.15109,1.52434 0,2.10254 -0.1511,0.57822 -0.27474,0.10512 -0.27474,-1.05127 z m 0.0223,-7.0243 c 0.5845,-0.15235 1.39548,-0.14236 1.80219,0.0227 0.40671,0.16461 -0.0715,0.28917 -1.06271,0.27693 -0.9912,-0.0113 -1.32397,-0.1469 -0.73948,-0.2992 z"
       style="fill:#fcdc2e;stroke-width:0.60072738" />
    <path
       sodipodi:nodetypes="ccccccsscccccccccccscssscscccccccccccccccccccccccccccccccccccscsscccccsscssccsccccccccccccccccccccccsscccccccssscccsccccccccsccscscsccscccccsccssccsccccccccccccccccccsccccccccccccccccccccccccccccccsccccccccccccccscccccccccccccsssscscccccccccccccssssccsccccccccccccccccccccccccccccscsccscccccccccsscccccccccccccccccccccccccccssc"
       inkscape:connector-curvature="0"
       id="path1485"
       d="m 50.845515,122.68013 c 0,-0.12465 0.473074,-0.59781 1.051273,-1.05127 0.952788,-0.74723 0.974037,-0.72598 0.22682,0.22682 -0.784771,1.00066 -1.278082,1.31889 -1.278082,0.82447 z m 53.667265,-1.12483 c -0.69662,-1.11507 -0.77205,-2.25274 -0.14938,-2.25274 0.30117,0 0.54758,0.52085 0.54758,1.15742 0,0.63657 0.47307,1.28104 1.05127,1.43214 0.94777,0.24766 0.95126,0.28158 0.0354,0.34441 -0.5587,0.0384 -1.22692,-0.26823 -1.48492,-0.68123 z m 8.25508,-0.80095 c 0.0288,-0.69983 0.17117,-0.84217 0.36293,-0.36296 0.17353,0.43366 0.15219,0.95178 -0.0474,1.1514 -0.19962,0.19957 -0.3416,-0.1553 -0.31552,-0.78844 z m 1.45864,0.35728 c -0.21045,-0.34053 0.0307,-0.44122 0.56527,-0.23609 1.04072,0.39936 1.23113,0.82995 0.36702,0.82995 -0.3109,0 -0.73043,-0.26723 -0.93229,-0.59386 z m -13.52062,-0.62645 c 0,-0.32004 0.40549,-0.58187 0.9011,-0.58187 0.49559,0 0.90109,0.10626 0.90109,0.23608 0,0.12987 -0.4055,0.3917 -0.90109,0.58188 -0.49561,0.19026 -0.9011,0.084 -0.9011,-0.23609 z m 18.66998,0.20457 c -0.0685,-1.03376 0.99456,-1.53036 1.5057,-0.70334 0.25908,0.41922 0.17523,0.543 -0.20755,0.30642 -0.35323,-0.21842 -0.77915,-0.0572 -0.94648,0.35773 -0.21776,0.54015 -0.31773,0.55127 -0.35167,0.0393 z m -25.831278,-1.13678 c 0.02884,-0.69982 0.17117,-0.84216 0.362936,-0.36293 0.173532,0.43364 0.152189,0.95176 -0.04741,1.15138 -0.19962,0.19957 -0.341596,-0.1553 -0.315513,-0.78845 z m 38.887208,0.54078 c 0.43365,-0.17346 0.95178,-0.15212 1.1514,0.0475 0.19962,0.19957 -0.15519,0.34159 -0.78845,0.3155 -0.69982,-0.0288 -0.84216,-0.17119 -0.36295,-0.36293 z m -36.484297,-1.1415 c 0.02884,-0.69982 0.17117,-0.84216 0.362934,-0.36295 0.173531,0.43366 0.152189,0.95178 -0.04741,1.1514 -0.199619,0.19957 -0.341598,-0.1553 -0.315515,-0.78845 z m 46.095937,0.54078 c 0.43365,-0.17346 0.95178,-0.15212 1.1514,0.0475 0.19962,0.19957 -0.15519,0.34161 -0.78846,0.31552 -0.69981,-0.0288 -0.84216,-0.17119 -0.36294,-0.36293 z m -13.20879,-1.79682 c 0.25635,-1.25729 0.40741,-1.40835 0.58247,-0.58246 0.13001,0.61329 -0.0258,1.37719 -0.34611,1.69755 -0.37614,0.37613 -0.45986,-0.0182 -0.23636,-1.11509 z m 2.49352,-1.27493 0.28976,-2.82553 0.20386,2.3319 c 0.11214,1.28254 -0.0182,2.55403 -0.28976,2.82553 -0.2715,0.2715 -0.36324,-0.77786 -0.20386,-2.3319 z m -5.89761,1.07919 c 0,-0.82599 0.13634,-1.1639 0.303,-0.75088 0.16665,0.41299 0.16665,1.0888 0,1.50179 -0.16665,0.413 -0.303,0.0752 -0.303,-0.75091 z m 10.76567,0.25032 c 0.0288,-0.69982 0.17117,-0.84216 0.36294,-0.36293 0.17353,0.43363 0.15219,0.95176 -0.0474,1.15137 -0.19962,0.19958 -0.3416,-0.1553 -0.31551,-0.78844 z m 17.37367,0.0499 c 0,-0.49562 0.26184,-0.9011 0.58187,-0.9011 0.32003,0 0.42627,0.40548 0.2361,0.9011 -0.1902,0.4956 -0.45203,0.90108 -0.58188,0.90108 -0.12985,0 -0.23609,-0.40548 -0.23609,-0.90108 z m 2.59843,0.47825 c 1.05962,-0.27388 1.05984,-0.32726 0.006,-1.58231 -0.59962,-0.71438 -0.8495,-1.10031 -0.55529,-0.85764 0.29422,0.24267 0.91449,-0.0277 1.37838,-0.60072 0.76108,-0.9402 0.78139,-0.91352 0.20795,0.27323 -0.42939,0.88866 -0.43696,1.43788 -0.0233,1.69351 0.86608,0.53527 0.118,1.51029 -1.0949,1.42708 -0.86992,-0.0597 -0.85831,-0.11034 0.0808,-0.35315 z m -64.956962,-1.67971 c 0.01226,-0.99119 0.146877,-1.32398 0.299186,-0.73947 0.152303,0.58449 0.14229,1.39545 -0.02225,1.80218 -0.164564,0.40671 -0.289173,-0.0715 -0.276929,-1.06271 z m 54.596502,0.55068 c 0.0288,-0.69983 0.17117,-0.84216 0.36294,-0.36296 0.17353,0.43366 0.15218,0.95178 -0.0474,1.1514 -0.19962,0.19958 -0.3416,-0.15507 -0.31552,-0.78844 z m 15.08787,-1.1514 c 0.0123,-0.99122 0.14687,-1.32398 0.29918,-0.73949 0.15231,0.58449 0.14229,1.39547 -0.0222,1.80218 -0.16456,0.40671 -0.28917,-0.0715 -0.27693,-1.06269 z m -60.34003,0.50323 c 0.413,-0.16666 1.08882,-0.16666 1.50182,0 0.413,0.16665 0.0751,0.30301 -0.75091,0.30301 -0.826,0 -1.16391,-0.13645 -0.75091,-0.30301 z m 77.09071,-0.55329 c 0.0288,-0.69983 0.17117,-0.84216 0.36293,-0.36294 0.17353,0.43364 0.15219,0.95176 -0.0474,1.15138 -0.19962,0.19957 -0.3416,-0.1553 -0.31552,-0.78844 z m -5.15361,-0.25032 c -0.20421,-0.3304 -0.085,-0.60072 0.26491,-0.60072 0.3499,0 0.63618,0.27032 0.63618,0.60072 0,0.33042 -0.1192,0.60074 -0.26491,0.60074 -0.1457,0 -0.43198,-0.27032 -0.63618,-0.60074 z m 2.5418,-0.55256 c -0.2613,-0.99921 -0.18311,-1.23378 0.26266,-0.78799 0.34908,0.34908 0.5165,0.98928 0.37204,1.42269 -0.14997,0.44992 -0.42228,0.17755 -0.6347,-0.6347 z m 15.66774,0.74294 c 0.43365,-0.17347 0.95179,-0.15212 1.1514,0.0474 0.19962,0.19957 -0.15519,0.34161 -0.78846,0.31553 -0.69981,-0.0288 -0.84215,-0.1712 -0.36294,-0.36294 z m -57.81548,-1.32375 c -0.18107,-0.29296 0.0733,-0.86673 0.56528,-1.27503 0.74436,-0.61777 0.89447,-0.52836 0.89447,0.53268 0,1.28878 -0.85371,1.72292 -1.45975,0.74235 z m 12.09403,-0.26833 c -0.16906,-0.44053 0.0465,-0.80097 0.47918,-0.80097 0.4326,0 0.64823,0.36044 0.47918,0.80097 -0.16906,0.44054 -0.38468,0.80098 -0.47918,0.80098 -0.0945,0 -0.31013,-0.36044 -0.47918,-0.80098 z m 24.80863,-0.66538 c 0,-0.47609 0.24512,-1.01712 0.54471,-1.20228 0.29959,-0.18504 0.40322,0.20434 0.2303,0.86564 -0.36681,1.40269 -0.77501,1.57999 -0.77501,0.33664 z m 18.66998,-0.0856 c 0.0288,-0.6998 0.17117,-0.84213 0.36293,-0.36293 0.17354,0.43366 0.15219,0.95178 -0.0474,1.1514 -0.19962,0.19957 -0.3416,-0.1553 -0.31552,-0.78847 z m 16.17221,0.40957 c 0,-0.62381 1.14271,-1.52688 1.48119,-1.17056 0.10989,0.1158 -0.17841,0.5589 -0.64069,0.98493 -0.46228,0.42603 -0.8405,0.50956 -0.8405,0.18572 z m -24.86225,-1.37052 c 0.17349,-0.28072 0.56709,-0.35487 0.87467,-0.16483 0.78598,0.48574 0.69748,0.67519 -0.31545,0.67519 -0.48107,0 -0.73272,-0.22968 -0.55922,-0.51043 z m 21.70194,-0.4243 c -0.16324,-0.62422 -0.0637,-1.50278 0.2211,-1.95235 0.35211,-0.55577 0.52084,-0.19254 0.5271,1.13496 0.0102,2.18566 -0.30136,2.52614 -0.7482,0.81739 z m -38.45007,-0.141 c 0.40749,-0.41054 0.89222,-0.59511 1.07718,-0.41016 0.18495,0.18505 -0.14844,0.52087 -0.74089,0.74646 -0.85616,0.326 -0.92516,0.257 -0.33629,-0.3363 z m 12.22217,-0.27588 c 0.0288,-0.6998 0.17117,-0.84214 0.36293,-0.36294 0.17353,0.43366 0.15219,0.95178 -0.0474,1.1514 -0.19961,0.19958 -0.34159,-0.1553 -0.31551,-0.78846 z m 23.14851,-0.36021 c 0.17348,-0.28072 0.56709,-0.3549 0.87466,-0.16484 0.78598,0.48577 0.69748,0.67519 -0.31545,0.67519 -0.48106,0 -0.73271,-0.22968 -0.55921,-0.5104 z m -11.29403,-0.90117 c 0.43365,-0.17347 0.95178,-0.15212 1.1514,0.0474 0.19962,0.19957 -0.15519,0.34162 -0.78846,0.31553 -0.69982,-0.0288 -0.84216,-0.1712 -0.36294,-0.36294 z m -10.81309,-1.20146 c 0.43365,-0.17347 0.95178,-0.15213 1.15139,0.0474 0.19962,0.19957 -0.15518,0.34159 -0.78845,0.3155 -0.69982,-0.0288 -0.84216,-0.17119 -0.36294,-0.36293 z m -21.02546,-3.00365 c 0.43365,-0.17346 0.95178,-0.15212 1.1514,0.0474 0.19962,0.19958 -0.15519,0.34162 -0.78846,0.31553 -0.69981,-0.0288 -0.84216,-0.17119 -0.36294,-0.36296 z m 6.00728,0 c 0.43364,-0.17346 0.95178,-0.15212 1.15139,0.0474 0.19962,0.19958 -0.15518,0.34162 -0.78845,0.31553 -0.69982,-0.0288 -0.84216,-0.17119 -0.36294,-0.36296 z m 13.56782,-2.2357 c -0.17812,-0.46415 -0.2129,-1.74822 -0.0773,-2.85346 0.22684,-1.848954 0.25424,-1.809494 0.34269,0.49347 0.0529,1.37667 0.43405,2.63939 0.84705,2.80604 0.58815,0.23731 0.58406,0.31328 -0.0188,0.35043 -0.42338,0.0261 -0.91549,-0.33235 -1.0936,-0.79648 z M 91.7424,102.73246 c 0.02884,-0.6998 0.17117,-0.84216 0.362936,-0.36294 0.173532,0.43366 0.152189,0.95178 -0.04741,1.1514 -0.19962,0.19958 -0.341599,-0.1553 -0.315516,-0.78846 z m -3.764427,-1.26138 c 0.433647,-0.17347 0.951774,-0.15212 1.151396,0.0475 0.199619,0.19957 -0.155187,0.34159 -0.788453,0.3155 -0.699819,-0.0288 -0.842162,-0.17119 -0.362943,-0.36293 z M 72.39906,99.911606 c 0.28985,-0.28985 1.303338,-0.43019 2.252186,-0.31185 1.588095,0.19799 1.546212,0.23997 -0.527,0.527004 -1.291407,0.17891 -2.027365,0.087 -1.725186,-0.215244 z m 64.39789,-0.78352 c 0.0288,-0.6998 0.17117,-0.84216 0.36294,-0.36293 0.17353,0.43366 0.15219,0.95178 -0.0474,1.1514 -0.19962,0.199574 -0.3416,-0.15507 -0.31551,-0.78847 z m 45.65528,0 c 0.0288,-0.6998 0.17117,-0.84216 0.36293,-0.36293 0.17353,0.43366 0.15219,0.95178 -0.0474,1.1514 -0.19962,0.199574 -0.3416,-0.15507 -0.31551,-0.78847 z m -99.005825,-0.0658 c 0.58449,-0.15235 1.395471,-0.14236 1.802182,0.0227 0.406711,0.1646 -0.0715,0.28918 -1.062705,0.27692 -0.991199,-0.0113 -1.323968,-0.1469 -0.739477,-0.29918 z m -20.446972,-2.58733 c 0,-1.15642 0.123627,-1.62947 0.274726,-1.05127 0.1511,0.57819 0.1511,1.52434 0,2.10254 -0.151099,0.5782 -0.274726,0.10512 -0.274726,-1.05127 z m 100.229517,0.85101 c 0.0288,-0.6998 0.17117,-0.84216 0.36294,-0.36293 0.17353,0.43366 0.15219,0.95178 -0.0474,1.1514 -0.19962,0.19957 -0.3416,-0.1553 -0.31551,-0.78847 z m 13.62612,-0.67516 c 0.74726,-0.14372 1.82856,-0.13827 2.40291,0.0113 0.57435,0.1503 -0.037,0.26791 -1.35864,0.26126 -1.3216,-0.007 -1.79152,-0.12964 -1.04427,-0.27339 z M 91.7424,94.923026 c 0.02884,-0.6998 0.17117,-0.84216 0.362936,-0.36293 0.173532,0.43364 0.152189,0.95178 -0.04741,1.1514 -0.19962,0.19957 -0.341599,-0.15508 -0.315516,-0.78847 z m -19.120519,-1.26512 c 0.578199,-0.15122 1.524345,-0.15122 2.102547,0 0.578199,0.15121 0.105122,0.27472 -1.051274,0.27472 -1.1564,0 -1.629472,-0.12351 -1.051273,-0.27472 z m 70.659009,-0.63719 c -0.74722,-0.95277 -0.72598,-0.97403 0.22682,-0.22682 0.5782,0.45346 1.05127,0.92654 1.05127,1.05127 0,0.49442 -0.49331,0.17619 -1.27808,-0.82447 z m 37.54113,-5.85707 c 0.002,-3.30401 0.10244,-4.57901 0.22416,-2.83334 0.12175,1.7457 0.12045,4.44896 -0.003,6.00729 -0.12313,1.55831 -0.22273,0.1301 -0.22116,-3.17395 z m -74.82223,4.09508 c 0.43365,-0.17346 0.95178,-0.15212 1.1514,0.0474 0.19962,0.19958 -0.15519,0.34159 -0.78846,0.31551 -0.69981,-0.0288 -0.84216,-0.1712 -0.36294,-0.36294 z m -32.927362,-1.61862 c 0,-0.12487 0.473072,-0.59783 1.051271,-1.05127 0.952789,-0.74723 0.974039,-0.72598 0.226819,0.22682 -0.78477,1.00066 -1.278081,1.31889 -1.278081,0.82448 z m 101.570342,-0.72434 c 0.0288,-0.69983 0.17117,-0.84216 0.36294,-0.36296 0.17353,0.43366 0.15218,0.95178 -0.0474,1.1514 -0.19962,0.19957 -0.3416,-0.1553 -0.31552,-0.78844 z m -97.477889,-1.26141 c 0.433647,-0.17346 0.951774,-0.15212 1.151396,0.0475 0.199619,0.19957 -0.155187,0.34159 -0.788453,0.3155 -0.699819,-0.0288 -0.842161,-0.17119 -0.362943,-0.36293 z m -10.099728,-1.69217 c 0.775991,-0.826 1.546051,-1.50183 1.71125,-1.50183 0.165199,0 -0.334533,0.67583 -1.110521,1.50183 -0.775991,0.82599 -1.546051,1.50182 -1.71125,1.50182 -0.165199,0 0.334533,-0.67583 1.110521,-1.50182 z m 60.720887,0.55065 c 0.0288,-0.6998 0.17117,-0.84216 0.36294,-0.36293 0.17353,0.43366 0.15219,0.95178 -0.0474,1.1514 -0.19962,0.19957 -0.3416,-0.1553 -0.31551,-0.78847 z m -88.195901,-1.8828 c 0.913142,-0.13805 2.26478,-0.13442 3.003637,0.009 0.738857,0.14258 -0.0082,0.25556 -1.66026,0.25104 -1.652002,-0.005 -2.25652,-0.12124 -1.343377,-0.25926 z m 37.537197,-2.97041 c 0.413,-0.16665 1.088818,-0.16665 1.501818,0 0.413,0.16665 0.07508,0.303 -0.750909,0.303 -0.826,0 -1.163909,-0.13646 -0.750909,-0.303 z m 44.604004,0.17097 c 0,-0.12465 0.47307,-0.59782 1.05127,-1.05127 0.95279,-0.74724 0.97404,-0.72598 0.22682,0.22682 -0.78477,1.00066 -1.27808,1.31886 -1.27808,0.82445 z m -18.73518,-1.98564 c 0.43364,-0.17346 0.95177,-0.15212 1.15139,0.0475 0.19962,0.19957 -0.15519,0.34159 -0.78845,0.3155 -0.69982,-0.0288 -0.84216,-0.17119 -0.36294,-0.36293 z m 6.00727,0 c 0.43365,-0.17346 0.95177,-0.15212 1.1514,0.0475 0.19962,0.19957 -0.15519,0.34159 -0.78846,0.3155 -0.69982,-0.0288 -0.84216,-0.17119 -0.36294,-0.36293 z m 63.83716,-2.9437 c 0.0288,-0.6998 0.17117,-0.84216 0.36293,-0.36294 0.17353,0.43364 0.15219,0.95178 -0.0474,1.1514 -0.19962,0.19958 -0.3416,-0.1553 -0.31552,-0.78846 z m -0.60073,-4.20506 c 0.0288,-0.69983 0.17117,-0.84216 0.36294,-0.36296 0.17353,0.43366 0.15219,0.95178 -0.0474,1.1514 -0.19962,0.19957 -0.3416,-0.1553 -0.31551,-0.78844 z m 2.2053,-9.05834 c 0.413,-0.16665 1.08882,-0.16665 1.50182,0 0.413,0.16665 0.0751,0.30299 -0.75091,0.30299 -0.826,0 -1.16391,-0.13623 -0.75091,-0.30299 z"
       style="fill:#ceb328;stroke-width:0.60072738" />
    <path
       sodipodi:nodetypes="cccccssscscsscccccscsssccsccccccccccccccccscsscccccccccccccccccccccsscccccccsscscssscsscsscccccccccccscssccccc"
       inkscape:connector-curvature="0"
       id="path1483"
       d="m 102.34787,120.42949 c 0.4075,-0.41055 0.89222,-0.59514 1.07718,-0.41016 0.18495,0.18504 -0.14844,0.52084 -0.74089,0.74644 -0.85616,0.32601 -0.92516,0.25701 -0.33629,-0.33628 z m 1.66201,-1.72764 c 0.20421,-0.3304 0.49049,-0.60072 0.63619,-0.60072 0.14569,0 0.2649,0.27032 0.2649,0.60072 0,0.33039 -0.28628,0.60071 -0.63618,0.60071 -0.3499,0 -0.46911,-0.27032 -0.26491,-0.60071 z m 39.44249,-2.40291 c 0,-0.82599 0.13634,-1.16391 0.303,-0.75091 0.16665,0.413 0.16665,1.08883 0,1.50182 -0.16665,0.413 -0.303,0.0752 -0.303,-0.75091 z m -18.06924,-0.95116 c 0.0288,-0.69981 0.17117,-0.84214 0.36293,-0.36294 0.17354,0.43366 0.15219,0.95178 -0.0474,1.1514 -0.19962,0.19958 -0.3416,-0.1553 -0.31551,-0.78846 z m 19.77658,0.38589 c 0,-0.3109 0.27032,-0.73234 0.60072,-0.93655 0.3304,-0.20411 0.60073,0.0502 0.60073,0.56528 0,0.5151 -0.27033,0.93654 -0.60073,0.93654 -0.3304,0 -0.60072,-0.25438 -0.60072,-0.56527 z m 22.66616,-0.58803 c -0.2613,-0.99921 -0.18311,-1.23377 0.26266,-0.78799 0.34909,0.34908 0.5165,0.98929 0.37204,1.4227 -0.14996,0.44991 -0.42227,0.17755 -0.6347,-0.63471 z m 2.01108,0.13736 c -0.0815,-1.23046 0.98103,-1.42088 1.83687,-0.32919 0.73061,0.93193 0.71185,0.96093 -0.17387,0.26866 -0.8114,-0.63414 -1.04977,-0.63414 -1.30422,0 -0.21369,0.53263 -0.32623,0.55161 -0.35878,0.0606 z m -33.34917,-0.96245 c 0.22559,-0.59245 0.56149,-0.92585 0.74645,-0.7409 0.18495,0.18505 3.9e-4,0.6697 -0.41016,1.07718 -0.5933,0.58887 -0.66229,0.51987 -0.33629,-0.33628 z m 21.77529,0.36645 c 0.43365,-0.17346 0.95178,-0.15212 1.15139,0.0475 0.19962,0.19957 -0.15518,0.34159 -0.78845,0.3155 -0.69982,-0.0288 -0.84216,-0.17119 -0.36294,-0.36293 z m 2.61039,-1.39181 c 0,-0.826 0.13637,-1.16391 0.303,-0.75092 0.16666,0.413 0.16666,1.08883 0,1.50183 -0.16665,0.41299 -0.303,0.0751 -0.303,-0.75091 z m 25.18313,0.25029 c 0.0288,-0.6998 0.17117,-0.84214 0.36293,-0.36293 0.17354,0.43366 0.15219,0.95178 -0.0474,1.1514 -0.19962,0.19957 -0.3416,-0.1553 -0.31552,-0.78847 z m 6.608,-0.60072 c 0.0288,-0.6998 0.17117,-0.84216 0.36294,-0.36293 0.17353,0.43363 0.15218,0.95178 -0.0474,1.1514 -0.19962,0.19957 -0.3416,-0.1553 -0.31552,-0.78847 z m -35.60298,-6.66795 c 0.43365,-0.17346 0.95178,-0.15212 1.1514,0.0475 0.19962,0.19957 -0.15519,0.34161 -0.78845,0.31552 -0.69982,-0.0288 -0.84216,-0.17119 -0.36295,-0.36295 z m 2.40291,0 c 0.43365,-0.17346 0.95178,-0.15212 1.1514,0.0475 0.19962,0.19957 -0.15519,0.34161 -0.78846,0.31552 -0.69981,-0.0288 -0.84215,-0.17119 -0.36294,-0.36295 z m 20.98791,-2.39039 c 0.413,-0.16665 1.08882,-0.16665 1.50182,0 0.413,0.16665 0.0751,0.303 -0.75091,0.303 -0.826,0 -1.16391,-0.13646 -0.75091,-0.303 z m 1.9998,-2.95621 c 0.0288,-0.6998 0.17117,-0.84216 0.36293,-0.36294 0.17353,0.43366 0.15219,0.95178 -0.0474,1.1514 -0.19962,0.19958 -0.3416,-0.1553 -0.31551,-0.78846 z M 80.7317,99.080726 c 0.413,-0.16665 1.088818,-0.16665 1.501818,0 0.413,0.16665 0.07508,0.303 -0.750909,0.303 -0.826,0 -1.163909,-0.13646 -0.750909,-0.303 z m 93.95849,-0.80361 c 0,-0.82599 0.13637,-1.16391 0.303,-0.75091 0.16665,0.413 0.16665,1.08883 0,1.50182 -0.16665,0.413 -0.303,0.0752 -0.303,-0.75091 z m -82.900367,-1.20146 c 0,-0.82599 0.136364,-1.16391 0.303,-0.75091 0.166653,0.413 0.166653,1.08882 0,1.50182 -0.166652,0.413 -0.303,0.0752 -0.303,-0.75091 z m 88.662607,-0.39785 c 0.413,-0.16665 1.08882,-0.16665 1.50182,0 0.413,0.16665 0.0751,0.30299 -0.75091,0.30299 -0.826,0 -1.16391,-0.13623 -0.75091,-0.30299 z M 75.963427,93.661646 c 0.433648,-0.17346 0.951775,-0.15212 1.151397,0.0475 0.199619,0.19957 -0.155187,0.34161 -0.788456,0.31552 -0.699816,-0.0288 -0.842159,-0.17119 -0.362941,-0.36295 z M 59.143063,83.449296 c 0.43365,-0.17346 0.951777,-0.15212 1.151394,0.0475 0.199619,0.19957 -0.155186,0.34159 -0.788456,0.3155 -0.699812,-0.0288 -0.842158,-0.17119 -0.362938,-0.36293 z M 180.8444,72.445826 c 0,-5.12119 0.0921,-7.21622 0.20473,-4.65563 0.11262,2.56061 0.11262,6.75068 0,9.31127 -0.11261,2.56061 -0.20473,0.46558 -0.20473,-4.65564 z m -3.95878,-8.82055 c 0.43364,-0.17346 0.95178,-0.15212 1.15139,0.0474 0.19962,0.19958 -0.15518,0.34159 -0.78845,0.31551 -0.69982,-0.0288 -0.84216,-0.1712 -0.36294,-0.36294 z"
       style="fill:#a99323;stroke-width:0.60072738" />
    <path
       sodipodi:nodetypes="ccsccccccccsccsccccccsscccccccccccsscsscccccccccccccccccsccccccccccccccccccccccccccsssscccccccccccccccccccccccccccccc"
       inkscape:connector-curvature="0"
       id="path1481"
       d="m 91.970636,122.26625 c -0.217783,-0.35238 -0.233738,-0.80293 -0.03544,-1.00121 0.19828,-0.19821 0.36052,-0.0649 0.36052,0.29627 0,0.36126 0.473075,0.78043 1.051274,0.93153 0.947774,0.24769 0.951263,0.28158 0.03544,0.34441 -0.558701,0.0384 -1.194004,-0.21865 -1.411794,-0.571 z m 42.423404,-3.91483 c 0.0288,-0.6998 0.17117,-0.84216 0.36293,-0.36293 0.17354,0.43363 0.15219,0.95178 -0.0474,1.1514 -0.19962,0.19957 -0.3416,-0.1553 -0.31551,-0.78847 z m -30.08379,-0.81557 c 0,-0.3109 0.26723,-0.73043 0.59385,-0.9323 0.34052,-0.21047 0.44123,0.0307 0.23609,0.56528 -0.39936,1.04071 -0.82994,1.23111 -0.82994,0.36702 z m 40.89688,-0.38587 c 0.0288,-0.69982 0.17117,-0.84216 0.36294,-0.36295 0.17353,0.43365 0.15219,0.95177 -0.0474,1.15139 -0.19962,0.19958 -0.3416,-0.15507 -0.31551,-0.78844 z m 16.62276,0.55329 c 0.413,-0.16665 1.08882,-0.16665 1.50182,0 0.41299,0.16665 0.0751,0.303 -0.75091,0.303 -0.826,0 -1.16391,-0.13646 -0.75091,-0.303 z m -14.21985,-1.15403 c 0.0288,-0.6998 0.17117,-0.84216 0.36294,-0.36293 0.17353,0.43363 0.15218,0.95177 -0.0474,1.15139 -0.19962,0.19958 -0.3416,-0.1553 -0.31551,-0.78846 z m 4.20509,-0.60072 c 0.0288,-0.69983 0.17117,-0.84216 0.36294,-0.36293 0.17353,0.43363 0.15219,0.95175 -0.0474,1.15137 -0.19962,0.19958 -0.3416,-0.1553 -0.31551,-0.78844 z m 17.97439,0.35042 c 0,-0.33039 0.28629,-0.60074 0.63619,-0.60074 0.3499,0 0.4691,0.27035 0.26491,0.60074 -0.20421,0.3304 -0.49049,0.60072 -0.63619,0.60072 -0.14569,0 -0.26491,-0.27032 -0.26491,-0.60072 z m -51.01439,-1.55188 c 0.0288,-0.69981 0.17117,-0.84216 0.36294,-0.36294 0.17353,0.43364 0.15219,0.95178 -0.0474,1.1514 -0.19962,0.19958 -0.3416,-0.1553 -0.31551,-0.78846 z m 79.73667,0.54078 c 0.43365,-0.17347 0.95178,-0.15212 1.15139,0.0474 0.19962,0.19957 -0.15518,0.34159 -0.78845,0.3155 -0.69982,-0.0288 -0.84216,-0.17119 -0.36294,-0.36293 z m -32.87994,-1.1415 c 0.0288,-0.69983 0.17117,-0.84216 0.36294,-0.36296 0.17353,0.43366 0.15218,0.95178 -0.0474,1.1514 -0.19962,0.19957 -0.3416,-0.1553 -0.31551,-0.78844 z m -26.75414,-0.20889 c -0.1901,-0.30757 -0.11593,-0.70116 0.16479,-0.87467 0.28073,-0.17346 0.51041,0.0781 0.51041,0.55922 0,1.01292 -0.18942,1.10142 -0.67519,0.31545 z m 29.15705,-0.39195 c 0.0288,-0.6998 0.17117,-0.84213 0.36294,-0.36293 0.17353,0.43366 0.15219,0.95178 -0.0474,1.1514 -0.19962,0.19957 -0.3416,-0.1553 -0.31552,-0.78847 z m 9.01091,-1.80218 c 0.0288,-0.6998 0.17117,-0.84214 0.36293,-0.36293 0.17354,0.43366 0.15219,0.95178 -0.0474,1.1514 -0.19962,0.19957 -0.3416,-0.1553 -0.31552,-0.78847 z m 15.30974,-1.62783 c 0.22559,-0.59246 0.56149,-0.92585 0.74645,-0.7409 0.18495,0.18504 3.9e-4,0.66968 -0.41016,1.07718 -0.59329,0.58887 -0.66229,0.51987 -0.33629,-0.33628 z m -88.15781,-0.23429 c 0.43365,-0.17346 0.95178,-0.15212 1.1514,0.0474 0.19962,0.19958 -0.15519,0.34159 -0.78846,0.31551 -0.69982,-0.0288 -0.84216,-0.1712 -0.36294,-0.36294 z m 2.40291,0 c 0.43365,-0.17346 0.95177,-0.15212 1.1514,0.0474 0.19961,0.19958 -0.15519,0.34159 -0.78846,0.31551 -0.69982,-0.0288 -0.84216,-0.1712 -0.36294,-0.36294 z m 24.29191,-1.80591 c 0.5782,-0.15121 1.52435,-0.15121 2.10255,0 0.5782,0.15122 0.10512,0.27473 -1.05128,0.27473 -1.1564,0 -1.62947,-0.12351 -1.05127,-0.27473 z M 78.967063,99.068106 c 0.433647,-0.17347 0.951774,-0.15212 1.151396,0.0474 0.199619,0.19957 -0.155187,0.34162 -0.788453,0.31553 -0.699819,-0.0288 -0.842161,-0.1712 -0.362943,-0.36296 z m 9.611638,-0.60072 c 0.433646,-0.17347 0.951775,-0.15212 1.151397,0.0474 0.199619,0.19958 -0.155187,0.34159 -0.788456,0.31551 -0.699816,-0.0288 -0.842159,-0.1712 -0.362941,-0.36294 z m 30.797159,-11.35387 c 0.0288,-0.69983 0.17117,-0.84216 0.36293,-0.36296 0.17353,0.43366 0.15219,0.95178 -0.0474,1.1514 -0.19962,0.19957 -0.3416,-0.1553 -0.31552,-0.78844 z m 26.432,-1.80218 c 0.0288,-0.69983 0.17117,-0.84217 0.36294,-0.36296 0.17353,0.43366 0.15218,0.95178 -0.0474,1.1514 -0.19962,0.19957 -0.3416,-0.15508 -0.31552,-0.78844 z m -39.80807,-5.46649 c 0.43365,-0.17346 0.95178,-0.15212 1.1514,0.0474 0.19962,0.19958 -0.15519,0.34159 -0.78846,0.31551 -0.69981,-0.0288 -0.84216,-0.1712 -0.36294,-0.36294 z m 26.10553,-1.80813 c 0.58449,-0.15235 1.39547,-0.14236 1.80218,0.0227 0.40671,0.16461 -0.0715,0.28917 -1.06271,0.27693 -0.9912,-0.0113 -1.32396,-0.1469 -0.73947,-0.2992 z"
       style="fill:#89761e;stroke-width:0.60072738" />
    <path
       inkscape:connector-curvature="0"
       id="path1479"
       d="m 175.19607,100.7656 v -3.689944 h 3.52793 3.52794 l 0.31099,3.153814 c 0.17103,1.73462 0.25112,3.22077 0.17796,3.3026 -0.0732,0.0817 -1.80068,0.32309 -3.83892,0.53613 l -3.70589,0.38734 z m 0.3523,-9.246684 c -1.21331,-7.82139 -1.65363,-10.75882 -2.75773,-18.39765 -0.68652,-4.74972 -1.16955,-8.69965 -1.07339,-8.77764 0.0961,-0.0781 2.13469,-0.29861 4.53009,-0.49031 l 4.35528,-0.34849 v 14.6186 c 0,15.85173 0.10918,15.34787 -3.32591,15.34787 -1.14561,0 -1.48494,-0.3833 -1.72834,-1.95238 z"
       style="fill:#b51514;stroke-width:0.60072738" />
    <path
       sodipodi:nodetypes="cscscccccccccccccccccccccccccccccccccccccsccsccccccccccccscccccccccccccccccsssccccccsccsccccccscsscccccccccccccccccccccccccccccccccccsccscsscccccccssscscsscccsccscscccccccccsccscscccscccscscccccccccccccccccccccccccccccccccscccccccccscccccccccccccccccssssccccccssccccccccccccc"
       inkscape:connector-curvature="0"
       id="path1477"
       d="m 51.14588,121.70549 c 0.598015,-0.6608 1.222466,-1.20146 1.387665,-1.20146 0.165199,0 -0.188926,0.54066 -0.786939,1.20146 -0.598016,0.6608 -1.222464,1.20144 -1.387663,1.20144 -0.165199,0 0.188925,-0.54064 0.786937,-1.20144 z m 50.04809,0.19026 c 0.43365,-0.17346 0.95178,-0.15212 1.1514,0.0475 0.19962,0.19957 -0.15519,0.34159 -0.78845,0.3155 -0.69982,-0.0288 -0.84217,-0.17119 -0.36295,-0.36293 z m -60.400044,-1.64238 c 0.07676,-0.63344 0.54508,-1.26224 1.040681,-1.39738 0.579566,-0.15803 0.665294,-0.0686 0.240257,0.25059 -0.363459,0.27293 -0.831765,0.90176 -1.04068,1.39736 -0.266893,0.63314 -0.338338,0.55862 -0.240258,-0.25057 z m 51.018159,-0.65051 c 0.01226,-0.99122 0.146876,-1.32398 0.299186,-0.73949 0.152303,0.58448 0.14229,1.39547 -0.02225,1.80218 -0.164563,0.40671 -0.289171,-0.0715 -0.276928,-1.06269 z m 6.007272,-0.60075 c 0.01226,-0.99119 0.146877,-1.32395 0.299187,-0.73946 0.152302,0.58448 0.14229,1.39547 -0.02225,1.80218 -0.164563,0.40671 -0.289171,-0.0715 -0.276929,-1.06272 z m 3.337073,0.487 c -1.205564,-0.31505 -1.370482,-1.11989 -0.35773,-1.74581 0.40993,-0.25334 0.53122,-0.16597 0.29662,0.21365 -0.22364,0.36184 0.32594,0.90619 1.25882,1.24685 1.65139,0.60301 0.7969,0.80661 -1.19771,0.28535 z m 30.8347,-1.13778 c 0.0288,-0.6998 0.17117,-0.84216 0.36294,-0.36293 0.17353,0.43363 0.15219,0.95178 -0.0474,1.1514 -0.19962,0.19957 -0.3416,-0.1553 -0.31551,-0.78847 z m 6.71207,-1.1514 c 0.007,-1.32159 0.12969,-1.79151 0.27337,-1.04425 0.1437,0.74723 0.13823,1.82854 -0.012,2.4029 -0.15035,0.57436 -0.26792,-0.037 -0.26126,-1.35865 z m 5.25505,1.86646 c 0,-0.12987 0.41953,-0.39708 0.93229,-0.59384 0.5346,-0.20525 0.77573,-0.10444 0.56527,0.23608 -0.35278,0.57082 -1.49756,0.8443 -1.49756,0.35776 z m -23.98166,-1.31578 c 0.0288,-0.69982 0.17117,-0.84216 0.36293,-0.36293 0.17353,0.43363 0.15219,0.95175 -0.0474,1.15137 -0.19962,0.19958 -0.3416,-0.1553 -0.31551,-0.78844 z m 1.20145,0 c 0.0288,-0.69982 0.17117,-0.84216 0.36293,-0.36293 0.17354,0.43363 0.15219,0.95175 -0.0474,1.15137 -0.19962,0.19958 -0.3416,-0.1553 -0.31552,-0.78844 z m 6.07491,-0.80947 c 0.0738,-0.96835 0.31216,-1.65062 0.52971,-1.51617 0.40369,0.2495 0.012,3.27678 -0.42398,3.27678 -0.13194,0 -0.17951,-0.79227 -0.10572,-1.76061 z m 5.93964,0.80947 c 0.0288,-0.69982 0.17117,-0.84216 0.36293,-0.36293 0.17353,0.43363 0.15219,0.95175 -0.0474,1.15137 -0.19961,0.19958 -0.34159,-0.1553 -0.31551,-0.78844 z m -22.22691,-0.60072 c 0.0288,-0.69982 0.17117,-0.84216 0.36293,-0.36296 0.17353,0.43366 0.15219,0.95178 -0.0474,1.1514 -0.19962,0.19958 -0.34159,-0.15507 -0.31551,-0.78844 z m 6.29882,-0.0742 c -0.326,-0.85617 -0.257,-0.92517 0.33629,-0.3363 0.41055,0.4075 0.59513,0.89222 0.41017,1.0772 -0.18496,0.18504 -0.52086,-0.14849 -0.74646,-0.7409 z m -10.25098,-0.17619 c -0.20421,-0.3304 -0.085,-0.60072 0.26491,-0.60072 0.3499,0 0.63618,0.27032 0.63618,0.60072 0,0.3304 -0.1192,0.60072 -0.26491,0.60072 -0.14569,0 -0.43198,-0.27032 -0.63618,-0.60072 z m 11.76161,-0.35042 c 0.0288,-0.69981 0.17117,-0.84217 0.36294,-0.36294 0.17353,0.43364 0.15219,0.95178 -0.0474,1.1514 -0.19962,0.19957 -0.3416,-0.1553 -0.31551,-0.78846 z m 15.71085,-0.85104 c 0,-1.1564 0.12363,-1.62947 0.27473,-1.05127 0.1511,0.57822 0.1511,1.52434 0,2.10256 -0.1511,0.5782 -0.27473,0.10512 -0.27473,-1.05129 z m 6.11043,-0.48227 c 0.0758,-1.026 1.16915,-1.03611 1.44019,-0.0136 0.15955,0.60206 0.0683,0.5918 -0.37469,-0.0422 -0.50099,-0.71699 -0.62448,-0.71699 -0.85448,0 -0.1813,0.56517 -0.25003,0.58322 -0.21102,0.0554 z m -47.5498,0.0681 c 0.578201,-0.15098 1.524345,-0.15098 2.102546,0 0.578199,0.15121 0.105123,0.27473 -1.051273,0.27473 -1.1564,0 -1.629472,-0.12374 -1.051273,-0.27473 z m 29.17282,0.005 c 0.43365,-0.17346 0.95177,-0.15212 1.1514,0.0474 0.19962,0.19958 -0.15519,0.3416 -0.78846,0.31553 -0.69982,-0.0288 -0.84216,-0.17119 -0.36294,-0.36293 z m 69.24371,-0.5408 c 0.0288,-0.6998 0.17117,-0.84216 0.36293,-0.36293 0.17353,0.43363 0.15219,0.95177 -0.0474,1.15139 -0.19962,0.19958 -0.3416,-0.1553 -0.31551,-0.78846 z m -55.86765,-0.60072 c 0.0288,-0.69983 0.17117,-0.84216 0.36294,-0.36293 0.17353,0.43363 0.15219,0.95175 -0.0474,1.15139 -0.19962,0.19958 -0.34159,-0.1553 -0.31551,-0.78846 z m 16.21964,0 c 0.0288,-0.69983 0.17117,-0.84216 0.36294,-0.36293 0.17353,0.43363 0.15219,0.95175 -0.0474,1.15139 -0.19962,0.19958 -0.3416,-0.1553 -0.31551,-0.78846 z m 1.20146,-0.60072 c 0.0288,-0.69983 0.17117,-0.84216 0.36293,-0.36296 0.17353,0.43366 0.15219,0.95178 -0.0474,1.1514 -0.19962,0.19958 -0.3416,-0.15507 -0.31552,-0.78844 z m 49.25964,0 c 0.0288,-0.69983 0.17117,-0.84216 0.36293,-0.36296 0.17353,0.43366 0.15219,0.95178 -0.0474,1.1514 -0.19961,0.19958 -0.34159,-0.15507 -0.31551,-0.78844 z M 186.727,112.39488 c 0.0123,-0.99122 0.14688,-1.32398 0.29919,-0.73949 0.1523,0.58448 0.14229,1.39547 -0.0223,1.80218 -0.16457,0.40671 -0.28918,-0.0715 -0.27693,-1.06269 z m -9.72875,0.66499 c 0,-0.12987 0.41953,-0.39708 0.93229,-0.59386 0.5346,-0.20525 0.77574,-0.10444 0.56528,0.23611 -0.35279,0.57082 -1.49757,0.84429 -1.49757,0.35775 z m 21.476,-0.16188 c 0.413,-0.16665 1.08882,-0.16665 1.50182,0 0.413,0.16665 0.0751,0.30302 -0.75091,0.30302 -0.826,0 -1.16391,-0.13646 -0.75091,-0.30302 z m 5.00343,-0.55329 c 0.0288,-0.69982 0.17117,-0.84216 0.36294,-0.36296 0.17353,0.43366 0.15219,0.95178 -0.0474,1.1514 -0.19962,0.19958 -0.3416,-0.15507 -0.31551,-0.78844 z m -8.75797,-1.45176 c -0.20421,-0.3304 -0.085,-0.60074 0.26491,-0.60074 0.3499,0 0.63618,0.27034 0.63618,0.60074 0,0.3304 -0.1192,0.60072 -0.26491,0.60072 -0.1457,0 -0.43198,-0.27032 -0.63618,-0.60072 z m -32.58946,-0.41411 c 0.5782,-0.15098 1.52435,-0.15098 2.10255,0 0.5782,0.15122 0.10512,0.27473 -1.05128,0.27473 -1.1564,0 -1.62947,-0.12374 -1.05127,-0.27473 z m -66.275653,-4.24152 -1.45635,-1.65202 1.652,1.45637 c 1.544044,1.36117 1.927487,1.84764 1.456349,1.84764 -0.107597,0 -0.851002,-0.7434 -1.651999,-1.65199 z M 116.02443,106.087 c 0.59802,-0.66079 1.22247,-1.20146 1.38767,-1.20146 0.1652,0 -0.18893,0.54067 -0.78694,1.20146 -0.59802,0.6608 -1.22247,1.20146 -1.38767,1.20146 -0.1652,0 0.18892,-0.54066 0.78694,-1.20146 z m -37.057367,0.19027 c 0.433647,-0.17347 0.951774,-0.15212 1.151396,0.0474 0.199619,0.19957 -0.155187,0.34161 -0.788453,0.31553 -0.699819,-0.0288 -0.842161,-0.1712 -0.362943,-0.36296 z m 43.007567,-2.14271 -1.14438,-1.35165 1.35163,1.14438 c 1.27021,1.07543 1.62512,1.5589 1.14438,1.5589 -0.114,0 -0.72223,-0.60823 -1.35163,-1.35163 z m 20.4818,0.15008 c 0.59802,-0.6608 1.22247,-1.20146 1.38767,-1.20146 0.1652,0 -0.18893,0.54066 -0.78694,1.20146 -0.59802,0.6608 -1.22247,1.20146 -1.38767,1.20146 -0.1652,0 0.18893,-0.54066 0.78694,-1.20146 z m 6.23101,-1.65199 c -0.74723,-0.9528 -0.72598,-0.97405 0.22682,-0.22682 1.00066,0.78479 1.31888,1.27809 0.82446,1.27809 -0.12474,0 -0.59781,-0.47307 -1.05127,-1.05127 z m 20.20099,-0.15008 c 0.59802,-0.6608 1.22247,-1.20146 1.38767,-1.20146 0.1652,0 -0.18892,0.54066 -0.78694,1.20146 -0.59802,0.6608 -1.22247,1.20146 -1.38767,1.20146 -0.1652,0 0.18893,-0.54066 0.78694,-1.20146 z m -10.02463,-1.61183 c 0.43364,-0.17346 0.95178,-0.15212 1.15139,0.0475 0.19962,0.19957 -0.15518,0.34161 -0.78845,0.31552 -0.69982,-0.0288 -0.84216,-0.17119 -0.36294,-0.36295 z M 76.237677,99.062636 c 0.58449,-0.15235 1.395471,-0.14236 1.802182,0.0227 0.406711,0.16461 -0.0715,0.28919 -1.062705,0.27693 -0.991199,-0.0114 -1.323968,-0.1469 -0.739477,-0.29918 z m 8.706118,-0.60931 c 0.747251,-0.14372 1.82856,-0.13827 2.402911,0.0114 0.574348,0.1503 -0.03705,0.26791 -1.358642,0.26126 -1.321599,-0.007 -1.79152,-0.12964 -1.044269,-0.27339 z m 78.885885,-1.12701 c 0.0288,-0.6998 0.17117,-0.84216 0.36293,-0.36293 0.17353,0.43366 0.15219,0.95178 -0.0474,1.1514 -0.19962,0.19957 -0.3416,-0.1553 -0.31552,-0.78847 z m -12.77534,-0.0599 c 0.43365,-0.17346 0.95177,-0.15212 1.1514,0.0474 0.19962,0.19958 -0.15519,0.34162 -0.78846,0.31553 -0.69981,-0.0288 -0.84216,-0.17119 -0.36294,-0.36296 z m 20.58479,-0.54078 c 0.0288,-0.6998 0.17117,-0.84216 0.36294,-0.36293 0.17353,0.43363 0.15219,0.95178 -0.0474,1.1514 -0.19962,0.19957 -0.3416,-0.1553 -0.31551,-0.78847 z m -54.79024,-1.30161 c -0.74722,-0.9528 -0.72598,-0.97405 0.22682,-0.22682 1.00066,0.78479 1.31889,1.27809 0.82446,1.27809 -0.12474,0 -0.59781,-0.47307 -1.05127,-1.05127 z m 16.18363,0.64091 c 0.43365,-0.17346 0.95178,-0.15212 1.1514,0.0474 0.19962,0.19958 -0.15519,0.3416 -0.78846,0.31551 -0.69981,-0.0288 -0.84216,-0.1712 -0.36294,-0.36294 z m 10.24837,-2.44309 c -0.74722,-0.9528 -0.72598,-0.97405 0.22682,-0.22682 0.5782,0.45346 1.05127,0.92653 1.05127,1.05127 0,0.49442 -0.49331,0.17619 -1.27808,-0.82445 z m -64.313827,0.0402 c 0.433647,-0.17346 0.951774,-0.15212 1.151396,0.0474 0.199619,0.19958 -0.155187,0.34162 -0.788453,0.31553 -0.699819,-0.0288 -0.842161,-0.17119 -0.362943,-0.36294 z m 31.237817,-1.20144 c 0.43365,-0.17346 0.95178,-0.15212 1.1514,0.0474 0.19962,0.19958 -0.15519,0.34159 -0.78845,0.31551 -0.69982,-0.0288 -0.84217,-0.1712 -0.36295,-0.36294 z m 23.42837,-2.40292 c 0.43365,-0.17347 0.95177,-0.15213 1.1514,0.0474 0.19961,0.19957 -0.15519,0.34161 -0.78846,0.31552 -0.69982,-0.0288 -0.84216,-0.17119 -0.36294,-0.36293 z m -96.45428,-4.80956 c 0.578199,-0.15122 1.524345,-0.15122 2.102544,0 0.578202,0.15121 0.105123,0.27472 -1.051271,0.27472 -1.1564,0 -1.629474,-0.12351 -1.051273,-0.27472 z m 67.89362,-0.002 c 0.58449,-0.15235 1.39547,-0.14236 1.80218,0.0227 0.40671,0.16461 -0.0715,0.28917 -1.0627,0.27693 -0.99121,-0.0113 -1.32397,-0.1469 -0.73948,-0.2992 z m -42.963436,-1.7837 c 0.413,-0.16665 1.088817,-0.16665 1.501817,0 0.413,0.16665 0.07509,0.30299 -0.750909,0.30299 -0.825999,0 -1.163908,-0.13622 -0.750908,-0.30299 z m 69.721916,-0.0136 c 0.43364,-0.17347 0.95177,-0.15212 1.15139,0.0474 0.19962,0.19957 -0.15518,0.34159 -0.78845,0.3155 -0.69982,-0.0288 -0.84216,-0.17119 -0.36294,-0.36293 z m -99.245165,-1.5543 c -23.6703228,-102.01469 -11.835163,-51.00734 0,0 z m 125.951415,-5.66013 c 0.58449,-0.15235 1.39547,-0.14236 1.80218,0.0227 0.40671,0.16461 -0.0715,0.28917 -1.0627,0.27693 -0.9912,-0.0113 -1.32397,-0.1469 -0.73948,-0.2992 z"
       style="fill:#62551a;stroke-width:0.60072738" />
    <path
       sodipodi:nodetypes="sscscsscscccccssccsscssssccscccccccccccccsscsssccccsccssccccccccccccscccssscsccscccccscccccsccccccccccccsssscccscccscsssccsscsccscsssccscscscssssscsssccscccssscccsscscccscccsssscscscscccccscccccscccsccccscsscccssssscccccccssssssssssccsscccccssssccscsccssssscccccsscccccccccccccscccccccccccccccccsccccscccscccccccccsccscc"
       inkscape:connector-curvature="0"
       id="path1475"
       d="m 41.233879,122.38232 c 0,-2.79894 0.07792,-2.92811 2.290593,-3.79727 2.60503,-1.02327 4.669925,-4.43415 3.986996,-6.58587 -0.220825,-0.69581 -2.831447,-6.29809 -5.801359,-12.449574 -7.319899,-15.16145 -6.94332,-13.86467 -4.065725,-14.0004 5.830099,-0.275 5.273914,-0.61459 7.563427,4.61808 1.156511,2.64321 2.940809,6.91223 3.965102,9.48673 1.024296,2.574514 2.069407,4.466784 2.322466,4.205094 0.253062,-0.2617 1.167119,-3.85491 2.03124,-7.984914 0.864119,-4.13 1.841268,-8.52281 2.171439,-9.76182 l 0.600314,-2.25271 h 3.866702 3.866705 l -0.610342,1.60531 c -0.33569,0.88294 -1.101897,3.38347 -1.702685,5.55673 -3.370143,12.191064 -7.558148,25.849254 -8.48755,27.680144 -1.902573,3.74799 -4.292973,5.23217 -10.044959,6.23692 l -1.952364,0.34105 z m 51.061822,-1.50283 c 0,-0.78471 -0.168945,-2.27151 -0.375456,-3.304 -0.369488,-1.84746 -0.338011,-1.87729 1.982401,-1.87729 2.871369,0 3.799601,0.83135 3.799601,3.40302 0,2.16325 -1.256326,3.20499 -3.865236,3.20499 -1.221946,0 -1.54131,-0.29562 -1.54131,-1.42672 z m 3.574212,-0.0388 c 1.18598,-1.42901 0.545234,-4.21092 -1.021121,-4.43338 -1.232507,-0.17505 -1.351636,0.0499 -1.351636,2.55309 0,2.8753 0.933223,3.61483 2.372757,1.88029 z m 3.264491,-10e-4 c -0.890338,-2.32017 1.297106,-4.78603 3.187726,-3.59347 1.69204,1.06732 1.55037,1.92531 -0.38822,2.35109 -1.01158,0.22228 -1.67222,0.67419 -1.4681,1.00448 0.20414,0.33028 1.04012,0.43263 1.85776,0.22741 0.95634,-0.24004 1.34888,-0.15031 1.10047,0.25168 -0.58192,0.94158 -3.907519,0.75459 -4.289636,-0.24119 z m 2.804666,-2.43805 c -0.0471,-0.89166 -1.39106,-0.72785 -1.70285,0.20752 -0.16843,0.50529 0.10619,0.73047 0.73257,0.60074 0.55111,-0.1142 0.98773,-0.47789 0.97028,-0.80829 z m 2.9719,0.90108 c 0,-2.07523 0.18023,-2.4029 1.3216,-2.4029 1.02791,0 1.16141,0.16029 0.60073,0.72087 -0.39648,0.39649 -0.72087,1.4778 -0.72087,2.4029 0,0.92512 -0.27033,1.68205 -0.60073,1.68205 -0.3304,0 -0.60073,-1.08131 -0.60073,-2.40292 z m 6.608,0.0752 c 0,-0.94992 -0.16894,-2.57187 -0.37545,-3.60436 -0.61961,-3.09803 1.37686,-2.42327 2.88827,0.97618 l 1.26866,2.85345 0.84745,-2.85345 c 0.82873,-2.79042 2.57256,-4.00551 2.58642,-1.80218 0.004,0.5782 0.17416,2.06499 0.37896,3.30398 0.24704,1.49463 0.14374,2.25273 -0.30698,2.25273 -0.37363,0 -0.67932,-0.79502 -0.67932,-1.76671 0,-2.71425 -1.04478,-2.7407 -1.50139,-0.0381 -0.50849,3.00971 -1.50939,3.06327 -2.79619,0.14963 l -0.99357,-2.24967 -0.0577,2.25273 c -0.0668,2.61117 -1.25912,3.10888 -1.25912,0.52566 z m 9.71372,0.60142 c -0.45383,-0.28769 -0.71335,-1.25693 -0.60073,-2.24351 0.15707,-1.37593 0.5333,-1.77571 1.80988,-1.9232 1.13533,-0.13123 1.80732,0.17959 2.27387,1.05127 1.2836,2.39845 -1.16257,4.58648 -3.48302,3.11544 z m 2.51807,-0.97689 c 0.47761,-1.24462 -0.17067,-2.70326 -1.20145,-2.70326 -1.20376,0 -1.69626,1.645 -0.81162,2.71091 0.9427,1.1359 1.57518,1.13349 2.01307,-0.007 z m 2.18567,-2.36664 c 0,-1.83715 0.27033,-3.34026 0.60073,-3.34026 0.3304,0 0.60073,0.48372 0.60073,1.07495 0,0.77793 0.45646,1.06841 1.652,1.05127 1.49202,-0.0204 1.65199,0.18005 1.65199,2.07886 0,1.99599 -0.11418,2.11201 -2.25272,2.28899 l -2.25273,0.18641 z m 3.7992,1.82432 c 0.43167,-1.12495 -1.03164,-3.05795 -1.90589,-2.51763 -0.75261,0.46515 -0.93484,2.31635 -0.29137,2.95982 0.68011,0.68012 1.85751,0.44318 2.19726,-0.44219 z m 2.58158,-0.4436 c -0.49668,-2.48339 -0.47259,-2.9188 0.16149,-2.9188 0.64019,0 1.21327,4.16751 0.62323,4.53217 -0.22616,0.13986 -0.5793,-0.58624 -0.78473,-1.61337 z m 2.50143,-1.86753 c -0.24573,-3.16757 -0.14379,-3.92693 0.44772,-3.33541 0.66848,0.6685 1.04823,6.48922 0.42336,6.48922 -0.34453,0 -0.73652,-1.4192 -0.87108,-3.15381 z m 2.9397,2.10361 c -0.7881,-2.17942 -0.66112,-5.02913 0.24977,-5.6058 1.34884,-0.85397 1.96112,-0.63582 1.10633,0.39417 -0.65127,0.78472 -0.63815,1.04033 0.0766,1.49261 0.53999,0.34168 0.59526,0.54918 0.14783,0.55494 -0.39305,0.005 -0.79958,1.02294 -0.9034,2.26193 -0.16356,1.95222 -0.2539,2.07255 -0.67714,0.90215 z m 3.43298,0.1998 c -0.17945,-0.46769 -0.2156,-1.61659 -0.0803,-2.55309 l 0.24598,-1.70274 0.47463,1.95235 c 0.65011,2.67418 2.12664,2.5699 2.12664,-0.15008 0,-1.15641 0.27032,-2.10256 0.60072,-2.10256 0.3304,0 0.60073,1.04979 0.60073,2.33286 0,1.91143 -0.24416,2.39827 -1.35164,2.69506 -1.96099,0.52552 -2.25436,0.47264 -2.61674,-0.47171 z m 5.16984,-2.21756 c 0,-1.8493 0.20734,-2.38763 0.82788,-2.1495 0.45534,0.17483 1.13116,0.0136 1.50182,-0.35624 0.96283,-0.96281 1.84428,0.11058 2.27616,2.77204 0.22437,1.38258 0.11873,2.20087 -0.28411,2.20087 -0.3527,0 -0.72597,-0.87855 -0.82951,-1.95235 -0.12065,-1.2513 -0.51182,-1.95237 -1.08933,-1.95237 -0.57752,0 -0.96869,0.70107 -1.08934,1.95237 -0.27139,2.81477 -1.31357,2.40631 -1.31357,-0.51482 z m 5.99907,-0.0858 c -0.005,-1.07379 -0.17121,-2.56058 -0.37043,-3.304 -0.21733,-0.81097 -0.0939,-1.35163 0.30857,-1.35163 0.36894,0 0.67079,0.63076 0.67079,1.40169 0,1.97172 0.62371,2.3681 1.90361,1.2098 0.60502,-0.54755 1.10003,-0.69924 1.10003,-0.33714 0,0.36211 -0.26733,0.82358 -0.59405,1.02552 -0.36423,0.22523 -0.2213,0.93604 0.36945,1.83765 0.61964,0.94569 0.71773,1.47049 0.27484,1.47049 -0.37877,0 -0.84428,-0.40551 -1.03446,-0.90111 -0.19017,-0.49559 -0.58718,-0.90108 -0.88224,-0.90108 -0.29504,0 -0.53645,0.40549 -0.53645,0.90108 0,0.4956 -0.27033,0.90111 -0.60073,0.90111 -0.3304,0 -0.60442,-0.87858 -0.60893,-1.95238 z m 9.4196,0.95115 c -0.22026,-0.22024 -0.40049,-1.70705 -0.40049,-3.30399 v -2.90351 h 2.38178 c 1.73997,0 2.54934,0.31309 3.00363,1.16195 1.48156,2.76831 0.0433,5.44603 -2.92528,5.44603 -0.91254,0 -1.83938,-0.18027 -2.05964,-0.40048 z m 3.24337,-0.82209 c 2.15387,-1.15272 1.12069,-4.78469 -1.36109,-4.78469 -0.85321,0 -1.08131,0.48576 -1.08131,2.30279 0,3.10296 0.44223,3.55235 2.4424,2.4819 z m 3.56487,-1.44522 c 0,-1.13692 0.27033,-2.23419 0.60073,-2.43837 0.3628,-0.22432 0.60072,0.59448 0.60072,2.06708 0,1.34109 -0.27032,2.43836 -0.60072,2.43836 -0.3304,0 -0.60073,-0.93018 -0.60073,-2.06707 z m 2.70967,1.47671 c -0.27629,-0.44706 0.0922,-0.53386 1.14472,-0.26967 0.95757,0.24033 1.55215,0.13896 1.55215,-0.26485 0,-0.35993 -0.68934,-0.82742 -1.53187,-1.03887 -2.16106,-0.54241 -1.69899,-2.31317 0.63592,-2.43698 1.21202,-0.0643 1.35702,-0.002 0.44541,0.19185 -0.7434,0.15803 -1.35164,0.47469 -1.35164,0.70376 0,0.22909 0.60824,0.68334 1.35164,1.00949 0.7434,0.32615 1.35164,0.99848 1.35164,1.49408 0,1.07216 -2.99829,1.58138 -3.59797,0.6111 z m 4.87592,-0.76803 c -0.57474,-2.14439 -0.43293,-5.85033 0.22387,-5.85033 0.33039,0 0.60072,0.81098 0.60072,1.80218 0,1.88639 0.99071,2.44963 1.58494,0.9011 0.19018,-0.49562 0.5967,-0.9011 0.90338,-0.9011 0.30708,0 0.25669,0.56223 -0.11216,1.25143 -0.53431,0.99835 -0.45901,1.4843 0.37233,2.4029 1.27628,1.41028 0.46906,1.5313 -1.0492,0.15735 -0.99106,-0.89688 -1.09857,-0.90036 -1.09857,-0.0354 0,1.54262 -1.03198,1.73954 -1.42532,0.27198 z m 5.63689,-0.13555 c -0.42521,-0.51235 -0.57979,-1.53708 -0.36248,-2.4029 0.29799,-1.1873 0.75882,-1.50963 2.15818,-1.50963 1.39937,0 1.8602,0.32233 2.15819,1.50963 0.43439,1.73075 -0.59058,3.29619 -2.15819,3.29619 -0.57988,0 -1.38795,-0.40198 -1.7957,-0.89329 z m 2.69679,-1.55145 c 0,-0.89718 -0.39788,-1.52017 -1.05127,-1.646 -0.76608,-0.14758 -1.05127,0.18981 -1.05127,1.24331 0,0.79514 0.18584,1.63157 0.413,1.85873 0.77626,0.77625 1.68954,-0.0113 1.68954,-1.45604 z m -26.57075,1.42771 c 0.58449,-0.15235 1.39547,-0.14236 1.80218,0.0227 0.40671,0.16461 -0.0715,0.28917 -1.0627,0.27693 -0.9912,-0.0113 -1.32397,-0.1469 -0.73948,-0.29918 z m 29.27403,-1.85679 c 0,-2.1682 0.0901,-2.27214 1.95236,-2.25273 1.84547,0.0182 1.96152,0.15189 2.11952,2.42327 0.1237,1.77813 0.009,2.16861 -0.44135,1.50182 -0.33467,-0.4956 -0.61264,-1.53186 -0.6177,-2.30277 -0.0139,-2.10543 -1.47769,-1.24617 -1.69926,0.99739 -0.26437,2.67699 -1.31357,2.38387 -1.31357,-0.36698 z m 6.34076,1.52219 c -0.64913,-2.12368 -0.79695,-4.50649 -0.32676,-5.26727 0.81819,-1.32385 1.40149,-0.23949 1.29759,2.41223 -0.0526,1.34119 0.1852,2.40449 0.53764,2.40449 0.34752,0 0.46479,0.27032 0.26058,0.60072 -0.51563,0.8343 -1.4935,0.7513 -1.76905,-0.15008 z m 3.27087,-1.05129 c -0.89863,-1.6791 0.22444,-3.60437 2.10255,-3.60437 0.84473,0 1.7304,0.50611 2.10254,1.20147 0.57736,1.07878 0.45685,1.20146 -1.18032,1.20146 -1.27485,0 -1.82331,0.29064 -1.82331,0.96622 0,0.73901 0.36498,0.8746 1.55215,0.57665 1.00648,-0.25261 1.4164,-0.16983 1.166,0.23522 -0.66464,1.07543 -3.23808,0.69681 -3.91961,-0.57665 z m 3.00364,-2.4029 c 0,-0.3304 -0.40549,-0.60072 -0.90109,-0.60072 -0.4956,0 -0.90109,0.27032 -0.90109,0.60072 0,0.33039 0.40549,0.60072 0.90109,0.60072 0.4956,0 0.90109,-0.27033 0.90109,-0.60072 z m 2.77641,1.71733 c -0.54003,-2.70017 -0.52118,-2.75049 1.14974,-3.06992 1.43212,-0.27375 1.46482,-0.22659 0.54658,0.78801 -0.58927,0.65115 -0.82635,1.55277 -0.59771,2.27315 0.20843,0.65668 0.13053,1.34747 -0.17308,1.53513 -0.30361,0.18754 -0.7201,-0.49923 -0.92553,-1.52637 z m 2.63014,0.68557 c 0,-0.3304 0.27032,-0.60072 0.60072,-0.60072 0.3304,0 0.60073,0.27032 0.60073,0.60072 0,0.33042 -0.27033,0.60074 -0.60073,0.60074 -0.3304,0 -0.60072,-0.27032 -0.60072,-0.60074 z m -73.28874,-0.60072 c 0,-0.3304 0.27033,-0.60072 0.60073,-0.60072 0.3304,0 0.60073,0.27032 0.60073,0.60072 0,0.3304 -0.27033,0.60072 -0.60073,0.60072 -0.3304,0 -0.60073,-0.27032 -0.60073,-0.60072 z m -57.760756,-2.02183 c -5.094781,-1.39665 -8.311779,-4.57751 -9.871704,-9.76075 -1.109186,-3.685544 -1.073186,-6.012334 0.151712,-9.805014 2.590985,-8.02253 12.185911,-11.84756 19.875035,-7.9232 3.883305,1.98196 6.412181,5.99444 7.092246,11.25307 l 0.39678,3.06808 -7.124566,0.41222 c -3.918508,0.22682 -8.434752,0.57391 -10.036093,0.77155 -2.880218,0.35547 -2.907688,0.37942 -2.554581,2.226604 0.50252,2.62881 3.467278,5.17126 6.030221,5.17126 2.200548,0 5.743523,-2.44161 5.743523,-3.95813 0,-0.61486 0.811488,-0.84767 2.954505,-0.84767 4.279918,0 4.88327,0.3402 4.18019,2.35706 -1.792798,5.14283 -10.487502,8.77564 -16.837268,7.03492 z m 5.647665,-17.530454 c 3.070936,-0.31843 3.454182,-0.50754 3.454182,-1.70437 0,-0.74042 -0.75819,-2.07261 -1.684872,-2.96041 -3.175066,-3.0419 -8.177905,-1.78904 -9.790263,2.45178 -0.898959,2.36444 -0.326291,3.07045 2.27525,2.80501 1.260337,-0.12851 3.845902,-0.395 5.745703,-0.59201 z m 88.757461,17.149384 c 0,-0.3304 0.27033,-0.60075 0.60073,-0.60075 0.3304,0 0.60072,0.27035 0.60072,0.60075 0,0.33039 -0.27032,0.60072 -0.60072,0.60072 -0.3304,0 -0.60073,-0.27033 -0.60073,-0.60072 z m -68.783277,-2.20179 c -2.466822,-1.3034 -3.878477,-2.58256 -5.177964,-4.69194 l -1.10121,-1.78751 3.43995,-0.70235 c 3.407071,-0.69562 3.455411,-0.68572 5.058091,1.03663 1.32051,1.41911 2.11369,1.73895 4.31236,1.73895 3.02061,0 4.58223,-1.11555 4.58223,-3.27336 0,-1.962224 -0.82328,-2.401134 -6.79421,-3.622144 -7.574944,-1.549 -10.59937,-3.94872 -10.615783,-8.42304 -0.0218,-5.92237 9.346713,-10.29386 17.395313,-8.11698 2.4385,0.65952 7.14354,4.49237 6.41229,5.22361 -0.14633,0.14622 -1.68954,0.64155 -3.42935,1.10052 -3.08722,0.81439 -3.20709,0.79759 -4.9849,-0.69835 -1.46482,-1.23254 -2.23997,-1.46586 -3.9574,-1.19106 -1.17468,0.18799 -2.61604,0.92941 -3.20303,1.64772 -0.93426,1.14325 -0.96258,1.4637 -0.2273,2.57137 0.85191,1.28334 3.2143,2.11183 9.68411,3.39616 2.73101,0.54214 4.07104,1.19874 5.63172,2.75941 1.92131,1.92132 2.02942,2.2412 1.74781,5.171924 -0.26162,2.72274 -0.61263,3.40125 -2.73314,5.28303 -1.33813,1.18748 -3.49837,2.47826 -4.80052,2.86839 -3.33008,0.99772 -9.08191,0.8488 -11.239067,-0.29098 z m 27.143147,-1.6326 c -2.69257,-1.00679 -4.36578,-2.38973 -5.89966,-4.87616 l -1.11176,-1.80219 3.4505,-0.722394 c 3.34737,-0.70083 3.48725,-0.67817 4.68003,0.757814 1.64548,1.98098 4.28583,2.68417 6.90269,1.83835 1.7055,-0.55122 2.11272,-1.00611 2.26101,-2.525664 0.23685,-2.42722 -0.80459,-3.2143 -5.0963,-3.85151 -5.50601,-0.8175 -9.06229,-2.30241 -10.72036,-4.47626 -4.15866,-5.45228 0.62163,-11.92074 9.40836,-12.73096 5.09655,-0.46994 8.60926,0.5399 11.29733,3.24774 l 2.13883,2.15458 -3.58872,1.07393 c -3.4572,1.03456 -3.63333,1.03395 -4.80582,-0.0159 -1.83652,-1.64513 -3.29343,-1.97183 -5.51848,-1.23752 -4.87585,1.6092 -3.10174,5.49426 2.85273,6.2471 8.27064,1.04566 11.96139,3.64954 11.96139,8.43896 0,2.957284 -1.64401,5.369354 -5.12663,7.521734 -2.70278,1.6704 -9.79264,2.18991 -13.08514,0.95879 z m 26.32158,-1.87381 c -2.51338,-0.88871 -6.30763,-4.46751 -6.30763,-5.949444 0,-0.48014 0.79856,-1.01642 1.80218,-1.21027 0.9912,-0.1914 2.58976,-0.4996 3.55236,-0.68478 1.38412,-0.26625 1.82849,-0.0899 2.12462,0.84312 0.20596,0.6489 1.32096,1.62894 2.4778,2.177904 2.65625,1.26047 5.99078,0.37183 7.01157,-1.868554 1.04192,-2.28677 -0.83923,-3.72647 -5.89429,-4.51107 -4.67843,-0.72617 -9.31678,-2.8169 -10.73206,-4.8375 -1.32158,-1.88681 -1.17328,-5.06975 0.35113,-7.53631 3.77423,-6.10683 16.97067,-6.71602 21.47373,-0.99129 l 1.34753,1.71309 -3.4449,1.14831 c -3.13933,1.04643 -3.50718,1.06312 -4.14698,0.18822 -1.00086,-1.36875 -3.3771,-2.14073 -5.44037,-1.76742 -2.38031,0.43066 -3.27359,1.2281 -3.27359,2.92232 0,1.86316 1.9362,3.01122 5.90785,3.50305 1.76252,0.21819 4.60845,0.92206 6.32428,1.56404 3.65865,1.36888 5.18896,3.47131 5.18896,7.12889 0,6.533004 -10.14954,11.057514 -18.32219,8.167754 z"
       style="fill:#1c1a17;stroke-width:0.60072738" />
    <rect
       y="102.35996"
       x="336.37424"
       height="4.4812398"
       width="6.4017711"
       id="rect2356"
       style="opacity:1;fill:#fddd30;fill-opacity:1;fill-rule:nonzero;stroke:none;stroke-width:12.01454639;stroke-linecap:butt;stroke-miterlimit:4;stroke-dasharray:none;stroke-opacity:0.71383649" />
    <g
       id="g2348"
       transform="matrix(4.3240718,0,0,4.3240718,-244.87693,-1816.7552)">
      <path
         d="m 114.69046,435.31112 c -1.21276,0.006 -2.37091,0.10906 -3.38997,0.28938 -3.00202,0.53036 -3.54707,1.64045 -3.54707,3.68764 v 2.70371 h 7.09414 v 0.90123 h -7.09414 -2.66237 c -2.06176,0 -3.86709,1.23924 -4.43177,3.59668 -0.65136,2.70218 -0.680252,4.38839 0,7.2099 0.50427,2.10022 1.70855,3.59668 3.77031,3.59668 h 2.43913 v -3.24115 c 0,-2.34153 2.02595,-4.40696 4.43177,-4.40696 h 7.08587 c 1.97245,0 3.54707,-1.62406 3.54707,-3.60495 v -6.75514 c 0,-1.92256 -1.62189,-3.36677 -3.54707,-3.68764 -1.21867,-0.20286 -2.48314,-0.29502 -3.6959,-0.28938 z m -3.83646,2.17454 c 0.73278,0 1.33119,0.60818 1.33119,1.35599 0,0.74516 -0.59841,1.34772 -1.33119,1.34772 -0.7354,0 -1.33118,-0.60256 -1.33118,-1.34772 0,-0.74781 0.59578,-1.35599 1.33118,-1.35599 z"
         style="fill:#b51514;fill-opacity:1;stroke-width:0.26458332"
         id="path1948"
         inkscape:connector-curvature="0" />
      <path
         d="m 122.81813,442.89308 v 3.1502 c 0,2.4423 -2.0706,4.49791 -4.43177,4.49791 h -7.08587 c -1.94094,0 -3.54707,1.66119 -3.54707,3.60495 v 6.75515 c 0,1.92255 1.67179,3.05337 3.54707,3.60494 2.2456,0.6603 4.39902,0.77963 7.08587,0 1.78598,-0.5171 3.54707,-1.55776 3.54707,-3.60494 v -2.70371 h -7.08587 v -0.90124 h 7.08587 3.54707 c 2.06176,0 2.83005,-1.43812 3.54707,-3.59668 0.74065,-2.22221 0.70914,-4.35922 0,-7.2099 -0.50953,-2.05249 -1.48269,-3.59668 -3.54707,-3.59668 z m -3.98529,17.10697 c 0.73541,0 1.33119,0.60257 1.33119,1.34772 0,0.7478 -0.59578,1.35599 -1.33119,1.35599 -0.73277,0 -1.33118,-0.60819 -1.33118,-1.35599 0,-0.74515 0.59841,-1.34772 1.33118,-1.34772 z"
         style="fill:#060500;fill-opacity:1;stroke-width:0.26458332"
         id="path1950"
         inkscape:connector-curvature="0" />
    </g>
    <text
       transform="rotate(-15.394085)"
       id="text2354"
       y="210.39636"
       x="-19.153847"
       style="font-style:normal;font-variant:normal;font-weight:600;font-stretch:normal;font-size:86.40219879px;line-height:125%;font-family:Titillium;-inkscape-font-specification:'Titillium, Semi-Bold';font-variant-ligatures:normal;font-variant-caps:normal;font-variant-numeric:normal;font-feature-settings:normal;text-align:start;letter-spacing:0px;word-spacing:0px;writing-mode:lr-tb;text-anchor:start;fill:#000000;fill-opacity:1;stroke:none;stroke-width:3.81186152px;stroke-linecap:butt;stroke-linejoin:miter;stroke-opacity:1"
       xml:space="preserve"><tspan
         style="font-style:normal;font-variant:normal;font-weight:bold;font-stretch:normal;font-family:Vollkorn;-inkscape-font-specification:'Vollkorn Bold';stroke-width:3.81186152px"
         y="210.39636"
         x="-19.153847"
         id="tspan2352"
         sodipodi:role="line">SMS</tspan></text>
  </g>
</svg>
